<?xml version="1.0" standalone="no"?>
<!DOCTYPE svg PUBLIC "-//W3C//DTD SVG 1.1//EN" "http://www.w3.org/Graphics/SVG/1.1/DTD/svg11.dtd" >
<svg xmlns="http://www.w3.org/2000/svg">
<defs>
  <font id="olsen-icons" horiz-adv-x="1792">
    <font-face font-family="olsen-icons"
      units-per-em="1000" ascent="1000"
      descent="0" />
    <missing-glyph horiz-adv-x="0" />
    <glyph glyph-name="500px"
      unicode="&#xE001;"
      horiz-adv-x="875" d="M201.75 327.53125C189.0625 355.2500000000001 188.28125 363.28125 216.21875 372.65625C266.21875 388.28125 231.8437500000001 354.6875 300.59375 276.5625H301.1875V459.96875C303.53125 558 387.125 640.03125 492 640.03125C597.28125 640.03125 682.8125 555.0625 682.8125 450.96875C682.8125 327.15625 564.0625 229.875 431.84375 268.75C411.34375 276.9375000000001 427.75 330.6562500000001 448.4375000000001 324.625C551.96875 324.625 623.03125 344.3437500000001 623.03125 450.4062500000001C623.03125 569.5625000000001 472.4375000000001 625.4062500000001 394.71875 537.5000000000001C348.8125 485.9375000000001 360.34375 455.2812500000001 360.34375 229.6875C459.3750000000001 169.1250000000001 591.40625 186.71875 673.625 268.9375A255.78125000000006 255.78125000000006 0 0 1 748.8125 450.59375C748.8125 519.34375 721.84375 583.78125 673.03125 632.8125C624.59375 681.25 560.125 708 490.8125 708S356.4375 681.03125 308.1875 632.8125C307.59375 632.21875 276.9375 600.59375 266.78125 586.125L265.8125 584.96875C259.375 575.78125 253.5 567.1875 226.5625 573.0625C213.09375 576.375 198.625 584.40625 198.625 596.125V960.96875C198.625 970.75 206.25 981.46875 219.125 981.46875H690.4062499999999C706.6249999999999 981.46875 706.6249999999999 958.8125 706.6249999999999 951.96875C706.6249999999999 944.34375 706.6249999999999 922.46875 690.4062499999999 922.46875H254.4687500000001V662.90625H255.0625000000001C458.5625 877.34375 807.4062500000001 733.21875 807.4062500000001 450.21875C807.4062500000001 102.375 329.2812500000001 19.9374999999999 201.7500000000001 327.5625zM325.375 836.9062500000001C324.40625 828.6875000000001 334.3437500000001 789.0625000000001 353.8750000000001 796.6875000000001C597.6250000000001 889.4687500000001 749.9687500000001 717.7812500000001 762.875 717.7812500000001C772.25 717.7812500000001 807.40625 747.6562500000001 790.8124999999999 762.3125000000001C608.7812499999999 936.1562500000002 332.8124999999999 873.6562500000001 325.3749999999999 836.9375000000001zM767.5937500000001 190.0312500000001C552.7500000000001 -24.625 183.5937500000001 71.2812500000001 119.1562500000001 393.5312500000001C119.1562500000001 417.3437500000001 59.7812500000001 407.9687500000001 62.7187500000001 387.0937500000001C109.5937500000001 48.4062500000002 543.1875 -114.65625 808.0312500000001 150.1875000000001C821.5000000000001 165.4375000000001 783.4062500000001 205.6562500000001 767.5937500000001 190.0312500000001zM417.1875 401.15625C417.1875 393.34375 425.59375 386.90625 427.9375 384.5625C433.8125 378.6875000000001 439.84375 375.9687500000001 444.53125 375.9687500000001C451.96875 375.9687500000001 449.59375 375.5937500000001 488.09375 414.0625000000001C526.375 376.3750000000001 525.40625 375.9687500000001 531.6562499999999 375.9687500000001C542.1874999999999 375.9687500000001 567.7812499999999 396.28125 552.5625 411.5000000000001L518.78125 445.2812500000001L554.3125 480.8125000000001C566.6249999999999 494.0937500000001 534.59375 523.40625 522.6875 511.4687500000001L487.71875 476.5C451.40625 513.21875 451.7812499999999 514.59375 445.71875 514.59375C435.9375 514.59375 410.5625 491.75 421.5 480.8125L457.03125 445.28125C421.6875 410.3125 417.1875 407.78125 417.1875 401.125z" />
    <glyph glyph-name="accessible-icon"
      unicode="&#xE002;"
      horiz-adv-x="875" d="M827.9375 500.375L802.75 193.15625C796.3125 113.65625 677.9375 124.5937500000001 684.375 202.7187500000001L703.90625 441.96875L623.625 437.4687500000001A304.1875 304.1875 0 0 0 654.5 303.6875000000001A302.34375000000006 302.34375000000006 0 0 0 571.8749999999999 95.6875000000001L495.1249999999999 172.4375000000001C608.2187499999999 296.8437500000001 520.7187499999999 499.0000000000001 350.59375 499.0000000000001A194.59375000000003 194.59375000000003 0 0 1 219.3437499999999 448.2187500000001L142.5937499999999 524.9687500000001A302.6875 302.6875 0 0 0 301.5937499999999 603.4687500000001L448.6562499999999 770.8437500000001L365.4687499999999 819.2812500000001L264.6875 729.4375C206.09375 677.09375 126.8125 765.5625 185.59375 818.125L318.40625 936.6875A59.25000000000001 59.25000000000001 0 0 0 387.75 943.71875S659.8124999999999 785.71875 660.21875 785.3125C691.84375 765.59375 700.65625 715 672.125 682.59375L558.0625 552.71875L765.28125 564.25C801.40625 566.40625 830.9062500000001 536.125 827.96875 500.375zM701.1875 801.1875A99.4375 99.4375 0 0 1 701.1875 1000A99.4375 99.4375 0 0 1 701.1875 801.1875zM350.78125 108.40625C193.375 108.40625 101.9375 285.375 189.25 413.28125L111.71875 490.8125000000001A300.46875 300.46875 0 0 1 46.875 303.90625C46.875 48.625 341.21875 -89.4374999999998 537.875 64.6562500000001L460.34375 142.1875000000001A193.96875 193.96875 0 0 0 350.78125 108.4062500000001z" />
    <glyph glyph-name="airbnb"
      unicode="&#xE003;"
      horiz-adv-x="875" d="M437.5 271.25C388.1875 333.09375 359.2187500000001 387.3125 349.59375 433.7187499999999C305.5625 605.59375 569.53125 605.59375 525.5 433.7187499999999C514.8437499999999 386.34375 485.8749999999999 332.1562499999999 437.59375 271.25zM707.3125 128.21875C625.15625 92.4687500000001 543.90625 149.46875 474.3125 226.78125C677.25 480.8125000000001 564.3750000000001 617.40625 437.5 617.40625C330.25 617.40625 271.1875 526.5625 294.375 421.1250000000001C307.90625 364.125 343.65625 299.28125 400.6875 226.78125C337.15625 156.375 282.4375 123.8750000000001 234.375 119.5C136.71875 105.0000000000001 60.34375 199.6875 95.125 297.4062500000001C124.625 373.8750000000001 313.3125 748.9375000000001 321.4375 769.2187500000001C352.1875 827.9375000000001 371.375 881.3125000000001 437.40625 881.3125000000001C500.5624999999999 881.3125000000001 522.15625 830.6562500000001 555.3125 764.3750000000001C625.625 626.4375000000002 729.8125 417.7500000000001 779.59375 297.4062500000001C805.3125 232.8125000000001 776.90625 158.1562500000001 707.3125 128.1875000000001zM799.125 394.09375C547.40625 929.84375 533.46875 937.5 437.5 937.5C348.59375 937.5 310.8125 875.65625 272.15625 795.34375C64.8125 380.6875 44.71875 321.90625 42.96875 316.78125C-6.28125 181.375 95.1875 62.5 218.03125 62.5C260.4375 62.5 336.40625 74.34375 437.5 184.375C552.09375 59.8124999999999 635.28125 62.5 656.96875 62.5C779.8125 62.40625 881.28125 181.375 832 316.78125C832.03125 324.375 799.15625 392.75 799.15625 394.09375z" />
    <glyph glyph-name="amazon-pay"
      unicode="&#xE004;"
      horiz-adv-x="1250" d="M27.34375 364.65625C31.84375 372.84375 37.5 374.21875 46.28125 369.53125C66.59375 358.5937499999999 86.5 347.28125 107.21875 336.90625C178.4375 300.4374999999999 261.34375 269.4375 348.0625 248.1249999999999L356.03125 246.4687499999999C388.78125 238.0312499999999 430.6250000000001 229.96875 473.1875000000001 224.1249999999999L479.4687500000001 223.4062499999999C526.625 216.71875 581.0937500000001 212.90625 636.4375 212.90625C646.46875 212.90625 656.5 213.03125 666.5 213.28125L665.03125 213.2499999999999A1108.90625 1108.90625 0 0 1 766.78125 220.6874999999999C885.0625 234.7812499999999 992.84375 264.1874999999999 1093.40625 307.2187499999999L1085.7187499999998 304.2812499999999C1091.3749999999998 306.6249999999998 1097.2499999999998 308.1874999999999 1103.5 306.6249999999998C1116.5937499999998 303.0937499999998 1121.09375 289.0312499999999 1111.5 279.4687499999998A136.90625000000003 136.90625000000003 0 0 0 1093.28125 265.3437499999998L1092.75 265.0312499999998C1032.78125 223.8124999999998 967.3749999999998 193.9374999999998 898.2187499999999 171.4687499999998C856.9999999999999 157.5624999999998 807.5312499999998 145.5937499999998 756.7187499999999 137.7499999999997L751.5624999999999 137.0937499999997C721.1874999999999 132.1562499999997 685.3124999999999 128.8124999999997 648.8749999999999 127.7499999999997L647.6562499999998 127.7187499999997C645.8437499999998 127.5937499999997 644.1562499999999 127.4062499999997 642.5312499999998 127.0937499999997L642.7812499999998 127.1249999999997H601.5625A39.375 39.375 0 0 1 596.8125 127.7187499999997H596.6874999999999C589.6562499999999 128.0937499999997 582.625 128.3124999999997 575.7812499999999 128.4999999999997A837.7812499999999 837.7812499999999 0 0 0 472.4062499999999 139.5624999999996L477.3437499999999 138.8749999999997A875.0625 875.0625 0 0 0 314.25 181.6562499999997L320.3125 179.6874999999997C210.4375 219.9687499999997 115.9062499999999 277.6562499999998 35.1562499999999 350.3124999999997L35.9374999999999 349.6249999999998C32.4062499999999 352.7499999999998 30.0624999999999 357.0624999999998 27.3437499999999 360.7499999999998zM335.9375 872.84375L327.53125 871.6875A157.81249999999997 157.81249999999997 0 0 1 252.8750000000001 841.90625L253.3125 842.21875C248.625 838.90625 244.34375 835.375 239.4375 831.65625A8.125 8.125 0 0 0 238.65625 834.34375V834.375C237.875 839.65625 237.09375 845.125 236.125 850.40625C234.75 859.375 230.25 863.28125 221.28125 863.28125H198.8125C185.34375 863.28125 182.78125 860.75 182.78125 847.25V438.46875C182.78125 436.5 182.78125 434.5625 182.96875 432.59375C183.375 426.71875 186.875 423.03125 192.53125 422.8125C206.21875 422.625 220.0625 422.625 233.75 422.8125C239.40625 422.8125 242.9375 426.71875 243.53125 432.59375C243.71875 434.5625 243.71875 436.5 243.71875 438.46875V579.875C245.875 578.125 247.03125 577.125 248.03125 576.15625C283 547.0625 323.21875 537.46875 367.15625 546.0625C407 553.875 434.71875 578.28125 452.7187499999999 614.21875C466.4062499999999 641.375 472.0624999999999 670.28125 472.8437499999999 700.34375C473.8124999999999 733.75 470.5 766.5625 457.0312499999999 797.59375C440.4375 835.875 412.90625 861.0625 371.28125 869.65625C365.03125 871.03125 358.59375 871.625 352.125 872.59375C346.65625 872.78125 341.375 872.78125 335.90625 872.78125zM243.34375 791L243.3125 791.59375A6.874999999999999 6.874999999999999 0 0 0 246.625 797.4375L246.65625 797.46875C273.40625 816.03125 302.90625 825.78125 335.71875 823.25C364.8125 821.09375 388.6562500000001 806.84375 401.15625 772.65625C408.78125 751.75 410.71875 730.0625 410.71875 708.1875C410.71875 687.875 409.15625 667.96875 402.90625 648.4375C389.625 606.84375 359.15625 591 319.71875 592.78125C292.375 593.9375 268.5625 604.5 246.65625 619.9375A7.000000000000001 7.000000000000001 0 0 0 243.3125 625.875L243.34375 626.40625V626.375C243.53125 653.90625 243.34375 681.25 243.34375 708.8125S243.53125 763.5 243.34375 791.03125zM645.125 872.84375C643.15625 872.65625 641.21875 872.25 639.4687499999999 872.0625A288.53125 288.53125 0 0 1 581.0312499999999 863.625L583.0312499999999 864.0625C571.1249999999999 860.9375 559.5937499999999 856.65625 548.0624999999999 852.75C541.0312499999999 850.40625 537.5312499999999 845.34375 537.7187499999999 837.71875C537.9062499999999 831.28125 537.5312499999999 824.84375 537.7187499999999 818.375C537.9062499999999 809 541.8124999999999 806.46875 550.9999999999999 808.8125C566.2499999999999 812.71875 581.46875 817.03125 596.90625 819.9375C620.9374999999999 824.4375 645.15625 826.375 669.5625 822.6875C682.2499999999999 820.71875 694.1875 817.03125 702.375 806.28125C709.59375 796.90625 712.3437499999999 785.78125 712.71875 774.25C713.3124999999999 758.03125 713.09375 741.84375 713.3124999999999 725.625A16.40625 16.40625 0 0 0 712.9062499999999 722.7812500000001L712.9374999999999 722.8750000000001C711.9687499999999 723.0625000000001 711.1874999999999 722.8750000000001 710.4062499999999 723.0625000000001C692.2187499999999 727.7500000000001 670.84375 731.1875000000001 648.9375 732.5937500000001L647.9062499999999 732.6562500000001C625.8437499999999 733.8125000000002 603.96875 732.4687500000001 582.8749999999999 725.0312500000001C557.6874999999999 716.2500000000001 537.3749999999999 701.0000000000001 525.4687499999999 676.4062500000001C516.2812499999999 657.2500000000001 514.9374999999999 636.96875 517.8437499999999 616.4375C521.7499999999999 589.09375 535.4374999999999 568 559.6249999999999 554.5312500000001C582.8749999999999 541.65625 608.0625 540.0625000000001 633.6562499999999 543.9687500000001C663.1562499999999 548.4687500000001 689.3124999999999 560.9687500000001 712.375 579.9062500000001A15.968750000000002 15.968750000000002 0 0 0 715.40625 582.0312500000001L715.5 582.0625000000001C716.6875 574.6250000000001 717.65625 567.5937500000001 719.03125 560.5625C720.21875 554.5 723.90625 550.59375 729.5625 550.4062500000001C740.09375 550.2187500000001 750.84375 550.2187500000001 761.40625 550.4062500000001A9.4375 9.4375 0 0 1 770.78125 559.5625A51.87499999999999 51.87499999999999 0 0 1 770.96875 564.1250000000001V565.0937500000001V565.0312500000001V773.8125000000001C770.96875 782.0937500000001 770.3125 790.2187500000001 769.09375 798.1250000000001L769.2187500000001 797.2500000000001C765.5000000000001 822.4375000000001 754.7812500000001 843.1562500000001 732.0937500000001 856.6250000000001C719.0000000000001 864.4375000000001 704.5625000000001 868.3437500000001 689.5000000000001 870.5000000000001C682.4687500000001 871.46875 675.4375000000001 872.0625000000001 668.4062500000001 873.0312500000001C660.7812500000001 872.8437500000001 652.9687500000001 872.8437500000001 645.1562500000001 872.8437500000001zM713.46875 623.4375V623.03125A6.562499999999999 6.562499999999999 0 0 0 710.5625 617.59375H710.53125C688.65625 601.78125 664.6249999999999 591.21875 637.5 588.5C626.3749999999999 587.34375 615.25 587.71875 604.6874999999999 592.03125A39.46875 39.46875 0 0 0 580.53125 617.71875L580.46875 618A64.18749999999999 64.18749999999999 0 0 0 580.375 656.34375L580.2499999999999 655.875C585.1249999999999 672.09375 596.6562499999999 681.28125 612.2812499999999 686.34375A116.75000000000001 116.75000000000001 0 0 0 646.8749999999999 691.4375C651.7499999999998 691.4375 656.5624999999998 691.15625 661.3124999999999 690.59375L660.7499999999999 690.65625C677.1562499999998 689.28125 693.1874999999999 686.15625 709.5937499999998 684C712.7187499999999 683.625 713.6874999999998 682.03125 713.6874999999998 678.9375C713.4999999999998 669.5625 713.6874999999998 660.375 713.6874999999998 651S713.3124999999998 632.625 713.4999999999998 623.46875zM1221.09375 370.71875C1219.125 380.5 1211.7187500000002 384.1875 1203.3125 386.9374999999999A167.3125 167.3125 0 0 1 1162.8125 394.5312499999999L1162.3125 394.5624999999999A288.65625 288.65625 0 0 1 1083.9687500000002 390.5624999999999L1085.7500000000002 390.8437499999999C1057.8125000000002 385.5624999999999 1031.2500000000002 376.59375 1007.6250000000002 360.3749999999999A27.46875 27.46875 0 0 1 1000.4375000000005 353.6249999999999L1000.3750000000002 353.5624999999999A9.6875 9.6875 0 0 1 999.4062500000002 345.6874999999999L999.3750000000002 345.7499999999999C1000.1562500000005 342.8124999999999 1003.4687500000002 342.0312499999999 1006.4062500000002 342.2187499999999H1007.1250000000002C1008.3750000000002 342.2187499999999 1009.6250000000002 342.2812499999999 1010.8437500000002 342.4375H1010.6875000000002C1025.9062500000002 344 1040.9687500000002 345.75 1056.1875000000002 347.3124999999999C1078.4375000000005 349.4687499999999 1100.9062500000002 350.8437499999999 1123.1875000000002 349.0624999999999C1133.5625000000002 348.1875 1143.1250000000002 346.3124999999999 1152.3125000000002 343.53125L1151.3125000000005 343.7812499999999C1161.2812500000005 341.0624999999999 1165.7500000000005 333.625 1166.1562500000005 323.46875C1166.9375000000005 307.84375 1163.4375000000005 292.8124999999999 1159.3125000000005 277.96875C1151.3125000000005 247.90625 1139.7812500000005 218.78125 1128.4687500000005 189.875A32.9375 32.9375 0 0 1 1126.5625000000005 184.25L1126.5000000000002 184C1125.5312500000002 178.34375 1128.8437500000005 174.625 1134.5000000000002 176A20.375 20.375 0 0 1 1143.8750000000002 180.90625H1143.8437500000002C1152.6250000000002 189.0937500000001 1160.7187500000002 197.625 1168.2812500000002 206.6250000000001L1168.6562500000002 207.0625C1193.65625 239.09375 1208.3125000000002 276 1216.90625 315.6562500000001C1218.46875 322.6875000000001 1219.6250000000002 329.9062500000001 1221 336.9375000000001V370.7187500000001zM963.0937500000002 611.3125L887.5000000000001 820.6875C883.5937500000001 831.8125 879.3125 842.75 875.1875000000001 853.6875C873.0312500000001 859.34375 868.9375000000001 863.0625 862.6875000000001 863.0625C847.8437500000001 863.25 833.0000000000002 863.46875 817.9687500000001 863.25C813.0937500000002 863.25 810.7500000000001 859.34375 811.7187500000001 854.46875C812.8125000000001 849.8125 814.0937500000002 845.8125 815.6250000000001 842L815.4375000000001 842.5625Q872.8437500000001 700.46875 930.8750000000002 558.375C934.1875000000002 550.375 934.9687500000002 543.53125 931.2500000000002 535.3125C924.8125000000002 521.0625 919.7187500000002 506 913.0937500000002 491.75C907.2187500000002 479.0625000000001 897.4687500000001 469.5 883.4062500000002 465.78125A80.84375 80.84375 0 0 0 852.9375000000001 463.65625L853.3125000000001 463.625C848.4375000000002 464 843.5312500000002 465.1875 838.6562500000001 465.5937499999999C832.0312500000001 465.9687499999999 828.6875000000001 463.0624999999999 828.5000000000001 456.2187499999999Q828.2187500000001 446.4374999999999 828.5000000000001 436.8749999999999C828.6875000000001 426.1249999999999 832.4062500000001 421.2499999999999 842.9375000000001 419.4999999999999C852.5937500000001 417.4687499999999 863.9375000000001 416.0624999999999 875.5312500000001 415.5937499999999H875.9375000000001C909.3437500000002 414.8124999999999 935.9062500000002 428.2812499999999 953.0937500000002 457.3749999999999C959.3125000000002 467.4999999999999 965.3437500000002 479.3124999999998 970.4375000000002 491.5937499999998L971.0625000000002 493.3124999999998Q1040.5000000000002 668.4999999999998 1108.9687500000002 844.0937499999998C1110.2812500000002 847.1562499999998 1111.3750000000002 850.7812499999998 1112.0312500000002 854.5312499999998L1112.0937500000002 854.8437499999998C1112.8750000000002 860.3124999999998 1110.3437500000005 863.4374999999998 1104.8750000000002 863.4374999999998C1091.9687500000005 863.6249999999998 1078.9062500000002 863.4374999999998 1066.0000000000002 863.4374999999998L1064.9687500000002 863.4687499999998A14.687499999999998 14.687499999999998 0 0 1 1051.0000000000002 853.3749999999998L1050.9687500000002 853.2812499999998C1050.0000000000002 850.5312499999998 1048.8125000000002 847.9999999999998 1047.8437500000002 845.2812499999998L979.8750000000002 649.9687499999998C975.0000000000002 635.9062499999998 969.9062500000002 621.6562499999998 964.8437500000002 606.6249999999998C964.0625000000002 608.7812499999998 963.6562500000002 609.9374999999998 963.0937500000002 611.3124999999998z" />
    <glyph glyph-name="amazon"
      unicode="&#xE005;"
      horiz-adv-x="875" d="M502.34375 682.21875C407.21875 678.6875 171.28125 651.9375 171.28125 452.71875C171.28125 238.8437499999999 441.40625 230.0625 529.6875 368.34375C542.3749999999999 348.4375 598.8125 295.0937499999999 618.15625 276.9375L729.09375 386.3125S665.9999999999999 435.7187499999999 665.9999999999999 489.4374999999999V776.75C666 826.15625 618.15625 937.5 446.65625 937.5C274.78125 937.5 183.5625 830.0625 183.5625 733.78125L327.125 720.5C358.96875 817.1875 432.96875 817.1875 432.96875 817.1875C512.46875 817.375 502.3125000000001 759 502.3125000000001 682.21875zM502.34375 512.6875C502.34375 356.4375 337.90625 379.875 337.90625 479.09375C337.90625 571.28125 436.53125 589.84375 502.34375 592V512.71875zM767.96875 193.3437499999999C752.9374999999999 173.8124999999999 631.25 62.46875 427.15625 62.46875S66.8125 202.125 18.9375 259.75C5.65625 274.7812500000001 20.90625 281.8125 29.6875 275.96875C172.84375 189.0625 396.5 45.875 757.2187499999999 216.78125C771.875 224.0000000000001 783.1874999999999 212.875 767.96875 193.34375zM845.71875 189.0624999999999C833.03125 158.1874999999999 814.46875 136.7187499999999 804.3125 128.5C793.5625 119.71875 785.75 123.2187499999999 791.625 135.9374999999999S829.3125 226.7499999999999 816.4375 243.3749999999999C803.7500000000001 259.5937499999999 744.1562500000001 251.7812499999999 722.6875 249.6249999999999C701.59375 247.6562499999999 697.2812500000001 245.7187499999999 695.34375 250.2187499999998C690.8437500000001 261.3437499999999 737.7187500000001 280.4999999999999 768.5937500000001 284.4062499999999C799.2500000000001 287.9374999999999 848.6875 285.9687499999999 858.4375000000001 273.2812499999998C865.6562500000001 263.3124999999999 858.4375000000001 220.3437499999999 845.7500000000001 189.0937499999999z" />
    <glyph glyph-name="angle-double-down"
      unicode="&#xE006;"
      horiz-adv-x="500" d="M233.40625 486.53125L6.84375 716.625A23.4375 23.4375 0 0 0 6.84375 749.84375L20.71875 763.71875A23.4375 23.4375 0 0 0 53.9375 763.71875L250.0312500000001 563.90625L446.1250000000001 763.53125A23.4375 23.4375 0 0 0 479.3437500000001 763.53125L493.2187500000001 749.65625A23.4375 23.4375 0 0 0 493.2187500000001 716.4375L266.6562500000001 486.375A23.625 23.625 0 0 0 233.4375000000001 486.5625zM266.59375 236.53125L493.15625 466.625A23.4375 23.4375 0 0 1 493.15625 499.8437499999999L479.28125 513.71875A23.4375 23.4375 0 0 1 446.0625 513.71875L249.96875 313.9062499999999L53.875 513.5A23.4375 23.4375 0 0 1 20.65625 513.5L6.78125 499.625A23.4375 23.4375 0 0 1 6.78125 466.40625L233.34375 236.3125A23.625 23.625 0 0 1 266.5625 236.5z" />
    <glyph glyph-name="angle-double-left"
      unicode="&#xE007;"
      horiz-adv-x="625" d="M299.03125 516.59375L529.09375 743.15625A23.4375 23.4375 0 0 0 562.3125 743.15625L576.1875 729.28125A23.4375 23.4375 0 0 0 576.1875 696.0625L376.375 499.9687499999999L575.9687499999999 303.8749999999999A23.4375 23.4375 0 0 0 575.9687499999999 270.6562499999999L562.09375 256.78125A23.4375 23.4375 0 0 0 528.875 256.78125L298.78125 483.34375A23.6875 23.6875 0 0 0 298.96875 516.5625zM49.03125 483.40625L279.1250000000001 256.84375A23.4375 23.4375 0 0 1 312.3437500000001 256.84375L326.2187500000001 270.71875A23.4375 23.4375 0 0 1 326.2187500000001 303.9375L126.4062500000001 500.03125L326.0312500000001 696.125A23.4375 23.4375 0 0 1 326.0312500000001 729.34375L312.1562500000001 743.21875A23.4375 23.4375 0 0 1 278.9375000000001 743.21875L48.8750000000001 516.65625A23.625 23.625 0 0 1 49.0625000000001 483.4375000000001z" />
    <glyph glyph-name="angle-double-right"
      unicode="&#xE008;"
      horiz-adv-x="625" d="M325.96875 483.40625L95.90625 256.84375A23.4375 23.4375 0 0 0 62.6875 256.84375L48.8125 270.71875A23.4375 23.4375 0 0 0 48.8125 303.9375L248.625 500.03125L49 696.125A23.4375 23.4375 0 0 0 49 729.34375L62.875 743.21875A23.4375 23.4375 0 0 0 96.09375 743.21875L326.15625 516.65625A23.6875 23.6875 0 0 0 325.96875 483.4375000000001zM575.9687499999999 516.59375L345.875 743.15625A23.4375 23.4375 0 0 1 312.6562499999999 743.15625L298.7812499999999 729.28125A23.4375 23.4375 0 0 1 298.7812499999999 696.0625L498.5937499999999 499.9687499999999L299 303.8749999999999A23.4375 23.4375 0 0 1 299 270.6562499999999L312.875 256.78125A23.4375 23.4375 0 0 1 346.09375 256.78125L576.1562499999999 483.34375A23.625 23.625 0 0 1 575.9687499999999 516.5625z" />
    <glyph glyph-name="angle-double-up"
      unicode="&#xE009;"
      horiz-adv-x="500" d="M266.59375 513.46875L493.15625 283.40625A23.4375 23.4375 0 0 0 493.15625 250.1875L479.28125 236.3125A23.4375 23.4375 0 0 0 446.0625 236.3125L249.96875 436.1250000000001L53.875 236.5312500000001A23.4375 23.4375 0 0 0 20.65625 236.5312500000001L6.78125 250.40625A23.4375 23.4375 0 0 0 6.78125 283.625L233.34375 513.71875A23.6875 23.6875 0 0 0 266.5625 513.53125zM233.40625 763.46875L6.84375 533.40625A23.4375 23.4375 0 0 1 6.84375 500.1874999999999L20.71875 486.3124999999999A23.4375 23.4375 0 0 1 53.9375 486.3124999999999L250.0312500000001 686.125L446.1250000000001 486.53125A23.4375 23.4375 0 0 1 479.3437500000001 486.53125L493.2187500000001 500.40625A23.4375 23.4375 0 0 1 493.2187500000001 533.625L266.6562500000001 763.6875A23.6875 23.6875 0 0 1 233.4375000000001 763.5z" />
    <glyph glyph-name="angle-down"
      unicode="&#xE00A;"
      horiz-adv-x="625" d="M295.90625 320.6875L6.84375 607.40625A23.4375 23.4375 0 0 0 6.84375 640.625L45.53125 679.3125A23.4375 23.4375 0 0 0 78.71875 679.3125L312.5 447.875L546.28125 679.3125A23.4375 23.4375 0 0 0 579.5 679.3125L618.1875 640.625A23.4375 23.4375 0 0 0 618.1875 607.40625L329.125 320.6875A23.4375 23.4375 0 0 0 295.90625 320.6875z" />
    <glyph glyph-name="angle-left"
      unicode="&#xE00B;"
      horiz-adv-x="375" d="M8.21875 516.59375L294.9375 805.65625A23.4375 23.4375 0 0 0 328.1562500000001 805.65625L366.84375 767A23.4375 23.4375 0 0 0 366.84375 733.78125L135.40625 500L366.84375 266.21875A23.4375 23.4375 0 0 0 366.84375 233L328.1562500000001 194.3125A23.4375 23.4375 0 0 0 294.9375 194.3125L8.21875 483.375A23.4375 23.4375 0 0 0 8.21875 516.59375z" />
    <glyph glyph-name="angle-right"
      unicode="&#xE00C;"
      horiz-adv-x="375" d="M366.8125 483.40625L80.09375 194.34375A23.4375 23.4375 0 0 0 46.875 194.34375L8.1875 233.03125A23.4375 23.4375 0 0 0 8.1875 266.25L239.625 500.03125L8.1875 733.8125A23.4375 23.4375 0 0 0 8.1875 767.03125L46.875 805.6875A23.4375 23.4375 0 0 0 80.0625 805.6875L366.7812500000001 516.625A23.4375 23.4375 0 0 0 366.7812500000001 483.40625z" />
    <glyph glyph-name="angle-up"
      unicode="&#xE00D;"
      horiz-adv-x="625" d="M329.09375 679.3125L618.15625 392.59375A23.4375 23.4375 0 0 0 618.15625 359.375L579.46875 320.6875A23.4375 23.4375 0 0 0 546.25 320.6875L312.46875 552.125L78.6875 320.6875A23.4375 23.4375 0 0 0 45.46875 320.6875L6.78125 359.375A23.4375 23.4375 0 0 0 6.78125 392.59375L295.84375 679.3125A23.4375 23.4375 0 0 0 329.0625000000001 679.3125z" />
    <glyph glyph-name="apple-pay"
      unicode="&#xE00E;"
      horiz-adv-x="1250" d="M228.3125 690.4375C213.65625 673.0625 190.21875 659.375 166.78125 661.34375C163.84375 684.78125 175.375 709.78125 188.84375 725C203.5 742.78125 229.09375 755.46875 249.96875 756.4375C252.3125 732.21875 242.75 708.1875 228.28125 690.4375M249.59375 656.84375C215.625 658.8125 186.5 637.5 170.5 637.5C154.09375 637.5 129.46875 655.875 102.53125 655.28125C67.5625 654.6875 35.15625 634.96875 17.375 603.53125C-19.34375 540.4375 7.8125 447.2812500000001 43.34375 395.90625C60.71875 370.5 81.4375 342.59375 108.78125 343.5625C134.75 344.53125 144.90625 360.375 176.15625 360.375C207.59375 360.375 216.78125 343.5625 244.125 343.96875C272.4375 344.5625 290.21875 369.375 307.59375 394.75A220.3125 220.3125 0 0 1 335.90625 453.15625C335.3125 453.75 281.21875 474.4375000000001 280.625 536.9375C280.03125 589.2812500000001 323.40625 614.09375 325.3437500000001 615.65625C300.9375 651.9687500000001 262.8437500000001 655.8750000000001 249.5625000000001 656.8750000000001M445.6875 727.53125V346.875H504.8749999999999V476.96875H586.71875C661.5312499999999 476.96875 713.8749999999999 528.34375 713.8749999999999 602.5625S662.3125 727.5625 588.6874999999999 727.5625H445.71875zM504.8749999999999 677.7187500000001H573.03125C624.4062499999999 677.7187500000001 653.6875 650.3750000000001 653.6875 602.34375S624.375 526.5625 572.84375 526.5625H504.8749999999999V677.75zM821.6874999999999 343.9375000000001C858.8124999999999 343.9375000000001 893.1874999999999 362.6875000000001 908.8124999999998 392.5625000000001H909.9999999999998V346.875H964.6874999999998V536.34375C964.6874999999998 591.21875 920.75 626.78125 853.15625 626.78125C790.4687499999999 626.78125 743.96875 590.84375 742.2187499999999 541.625H795.5312499999999C800.0312499999999 565.0625 821.6874999999999 580.5 851.4062499999999 580.5C887.5312499999999 580.5 907.84375 563.71875 907.84375 532.65625V511.5625L834 507.0625C765.4375 502.9687499999999 728.34375 474.84375 728.34375 425.9999999999999C728.53125 376.78125 766.8125 343.9687499999999 821.7187499999999 343.9687499999999zM837.6874999999999 389.0625000000001C806.2499999999999 389.0625000000001 786.125 404.3125000000001 786.125 427.3437500000001C786.125 451.3750000000001 805.46875 465.2187500000001 842.375 467.3750000000001L908 471.4687500000001V449.9687500000001C908 414.4375000000001 877.71875 389.0312500000001 837.6875 389.0312500000001zM1037.8749999999998 243.3750000000001C1095.5 243.3750000000001 1122.625 265.4375000000001 1146.28125 332.0312500000001L1250 623.0625H1189.84375L1120.3125 398.25H1119.1250000000002L1049.59375 623.0625H987.8750000000002L1087.8750000000002 345.90625L1082.4062500000002 329.09375C1073.4062500000002 300.5625 1058.7812500000002 289.4375 1032.5937500000002 289.4375A234.37499999999997 234.37499999999997 0 0 0 1015.2187500000002 290.40625V244.71875C1018.7187500000005 243.9375 1033.3750000000005 243.34375 1037.8750000000002 243.34375z" />
    <glyph glyph-name="apple"
      unicode="&#xE00F;"
      horiz-adv-x="750" d="M622.46875 475.1875C622.09375 546.875 654.5 600.96875 720.125 640.8125C683.40625 693.34375 627.9375 722.25 554.6875 727.90625C485.34375 733.375 409.5625 687.46875 381.8437500000001 687.46875C352.53125 687.46875 285.34375 725.9375 232.6250000000001 725.9375C123.65625 724.1875 7.8125 639.03125 7.8125 465.78125Q7.8125 389.03125 35.9375 307.1875000000001C60.9375 235.5 151.1875 59.71875 245.3125 62.6562500000001C294.53125 63.8437500000001 329.3125 97.6250000000001 393.34375 97.6250000000001C455.46875 97.6250000000001 487.6875 62.6562500000001 542.5625000000001 62.6562500000001C637.5000000000001 64.0312500000001 719.125 223.78125 742.9687500000001 295.6562500000001C615.6250000000001 355.6250000000001 622.4687500000001 471.4375000000001 622.4687500000001 475.1562500000001zM511.90625 795.90625C565.21875 859.1875 560.34375 916.8125 558.78125 937.5C511.71875 934.78125 457.21875 905.46875 426.15625 869.34375C391.9687500000001 830.6875 371.84375 782.8125 376.15625 728.90625C427.1250000000001 725 473.625 751.1875 511.90625 795.90625z" />
    <glyph glyph-name="arrow-down"
      unicode="&#xE010;"
      horiz-adv-x="875" d="M806.84375 565.4375L850.1875 522.09375A46.71875 46.71875 0 0 0 850.1875 455.8749999999999L470.6875 76.1874999999999A46.71875 46.71875 0 0 0 404.46875 76.1874999999999L24.78125 455.875A46.65625000000001 46.65625000000001 0 0 0 24.78125 522.09375L68.15625 565.4375A46.9375 46.9375 0 0 0 135.15625 564.65625L359.375 329.3125V890.625C359.375 916.59375 380.28125 937.5 406.25 937.5H468.75C494.71875 937.5 515.625 916.59375 515.625 890.625V329.3125L739.84375 564.65625A46.5625 46.5625 0 0 0 806.8437500000001 565.4375z" />
    <glyph glyph-name="arrow-left"
      unicode="&#xE011;"
      horiz-adv-x="875" d="M502.9375000000001 130.65625L459.59375 87.3125A46.71875 46.71875 0 0 0 393.3750000000001 87.3125L13.6875 466.8125A46.65625000000001 46.65625000000001 0 0 0 13.6875 533.03125L393.3750000000001 912.71875A46.71875 46.71875 0 0 0 459.59375 912.71875L502.9375000000001 869.34375A46.9375 46.9375 0 0 0 502.1562500000001 802.34375L266.8125 578.125H828.125C854.09375 578.125 875 557.21875 875 531.25V468.75C875 442.78125 854.09375 421.875 828.125 421.875H266.8125L502.1562499999999 197.65625A46.5625 46.5625 0 0 0 502.9374999999999 130.6562499999999z" />
    <glyph glyph-name="arrow-right"
      unicode="&#xE012;"
      horiz-adv-x="875" d="M372.0625 869.34375L415.4062500000001 912.71875A46.71875 46.71875 0 0 0 481.625 912.71875L861.3125 533.21875A46.71875 46.71875 0 0 0 861.3125 467L481.625 87.3124999999999A46.71875 46.71875 0 0 0 415.4062500000001 87.3124999999999L372.0625 130.6562499999999A46.9375 46.9375 0 0 0 372.8437500000001 197.6562499999999L608.1875 421.8749999999999H46.875C20.90625 421.875 0 442.78125 0 468.75V531.25C0 557.21875 20.90625 578.125 46.875 578.125H608.1875L372.8437500000001 802.34375A46.5625 46.5625 0 0 0 372.0625 869.34375z" />
    <glyph glyph-name="arrow-up"
      unicode="&#xE013;"
      horiz-adv-x="875" d="M68.15625 434.5625L24.8125 477.90625A46.65625000000001 46.65625000000001 0 0 0 24.8125 544.125L404.3125 923.8125A46.71875 46.71875 0 0 0 470.53125 923.8125L850.03125 544.3125A46.71875 46.71875 0 0 0 850.03125 478.09375L806.6875 434.75A46.9375 46.9375 0 0 0 739.6875 435.5312499999999L515.65625 670.6875V109.375C515.65625 83.40625 494.75 62.5 468.7812500000001 62.5H406.2812500000001C380.3125000000001 62.5 359.4062500000001 83.40625 359.4062500000001 109.375V670.6875L135.1875000000001 435.34375A46.5625 46.5625 0 0 0 68.1875 434.5625000000001z" />
    <glyph glyph-name="bandcamp"
      unicode="&#xE014;"
      horiz-adv-x="1000" d="M500 984.375C232.40625 984.375 15.625 767.5625 15.625 500S232.4375 15.625 500 15.625S984.375 232.4375 984.375 500S767.5625 984.375 500 984.375zM594.125 347.46875H240.59375L406.03125 652.34375H759.5624999999999z" />
    <glyph glyph-name="bars"
      unicode="&#xE015;"
      horiz-adv-x="875" d="M31.25 742.1875H843.75A31.25 31.25 0 0 1 875 773.4375V851.5625A31.25 31.25 0 0 1 843.75 882.8125H31.25A31.25 31.25 0 0 1 0 851.5625V773.4375A31.25 31.25 0 0 1 31.25 742.1875zM31.25 429.6875H843.75A31.25 31.25 0 0 1 875 460.9375V539.0625A31.25 31.25 0 0 1 843.75 570.3125H31.25A31.25 31.25 0 0 1 0 539.0625V460.9375A31.25 31.25 0 0 1 31.25 429.6875zM31.25 117.1875H843.75A31.25 31.25 0 0 1 875 148.4375V226.5625A31.25 31.25 0 0 1 843.75 257.8125H31.25A31.25 31.25 0 0 1 0 226.5625V148.4375A31.25 31.25 0 0 1 31.25 117.1875z" />
    <glyph glyph-name="behance-square"
      unicode="&#xE016;"
      horiz-adv-x="875" d="M364.25 427.71875C364.25 390.03125 336.90625 378.125 303.3125000000001 378.125H215.21875V481.4375000000001H305.0625C341.375 481.2500000000001 364.25 466.1875000000001 364.25 427.71875zM349.21875 588.46875C349.21875 623.03125 322.46875 631.25 292.78125 631.25H215.4375V543.75H298.84375C328.3437500000001 543.75 349.25 556.6250000000001 349.25 588.4687500000001zM607.6250000000001 543.15625C571.8750000000001 543.15625 548.0625000000001 520.8750000000001 545.71875 485.1562500000001H667.1875C663.875 521.28125 645.1250000000001 543.15625 607.6250000000001 543.15625zM875 843.75V156.25C875 104.5 833 62.5 781.25 62.5H93.75C42 62.5 0 104.5 0 156.25V843.75C0 895.5 42 937.5 93.75 937.5H781.25C833 937.5 875 895.5 875 843.75zM530.65625 638.65625H682.625V675.5625H530.65625V638.65625zM446.6875000000001 423.25C446.6875000000001 470.3125 424.4062500000001 510.9375000000001 378.3125000000001 524.03125C411.9062500000001 540.03125 429.4687500000001 558.59375 429.4687500000001 596.3125C429.4687500000001 670.9375 373.8125000000001 689.09375 309.5312500000001 689.09375H132.78125V314.0937500000001H314.625C382.78125 314.4687500000001 446.65625 347.0937500000001 446.65625 423.28125zM742.1875 452.15625C742.1875 532.4375 695.125 599.4375 610.15625 599.4375C527.34375 599.4375 471.28125 537.3125 471.28125 455.6875C471.28125 371.125 524.59375 313.0937500000001 610.15625 313.0937500000001C674.9999999999999 313.0937500000001 717 342.1875000000001 737.3124999999999 404.5000000000001H671.5C664.2812499999999 381.2500000000001 635.15625 369.1562500000001 612.53125 369.1562500000001C568.78125 369.1562500000001 545.9375 394.75 545.9375 438.0937500000001H741.625C741.8125 442.59375 742.2187499999999 447.4687500000001 742.2187499999999 452.15625z" />
    <glyph glyph-name="caret-down"
      unicode="&#xE017;"
      horiz-adv-x="625" d="M61.125 625H563.65625C598.4375 625 615.8125 583 591.1875 558.40625L340.03125 307.03125A39.12500000000001 39.12500000000001 0 0 0 284.75 307.03125L33.5937499999999 558.40625C9 583 26.375 625 61.125 625z" />
    <glyph glyph-name="caret-left"
      unicode="&#xE018;"
      horiz-adv-x="375" d="M375 751.28125V248.6875000000001C375 213.875 332.9375 196.4687500000001 308.3125 221.0625L57.03125 472.3437500000001A39.0625 39.0625 0 0 0 57.03125 527.59375L308.3125 778.8750000000001C332.90625 803.4687500000001 375 786.0625000000001 375 751.2500000000001z" />
    <glyph glyph-name="caret-right"
      unicode="&#xE019;"
      horiz-adv-x="375" d="M0 248.71875V751.3125C0 786.125 42.0625 803.53125 66.6875 778.9375L317.96875 527.65625A39.0625 39.0625 0 0 0 317.96875 472.40625L66.6875 221.125C42.09375 196.5 0 213.9375 0 248.75z" />
    <glyph glyph-name="caret-up"
      unicode="&#xE01A;"
      horiz-adv-x="625" d="M563.78125 312.5H61.1875C26.375 312.5 8.96875 354.5625 33.5625 379.1875L284.84375 630.46875A39.0625 39.0625 0 0 0 340.09375 630.46875L591.375 379.1875C616 354.59375 598.5625 312.5 563.75 312.5z" />
    <glyph glyph-name="cc-amazon-pay"
      unicode="&#xE01B;"
      horiz-adv-x="1125" d="M243.5625 605.84375C243.75 628.90625 243.5625 651.75 243.5625 674.78125V743.71875A5.625 5.625 0 0 0 246.3125 749C268.78125 764.625 293.375 772.625 320.9375 770.6875C345.34375 768.9375 365.28125 757 375.8125 728.3125C382.25 710.9375 383.8125 692.78125 383.8125 674.21875C383.8125 657.21875 382.4375 640.4375 377.15625 624.21875C366.0312500000001 589.4375 340.625 575.96875 307.4375000000001 577.53125C284.5937500000001 578.5 264.6562500000001 587.3125 246.0937500000001 600.375C244.3437500000001 601.9375 243.3437500000001 603.5 243.5625000000001 605.84375zM546.0937499999999 577.34375C555.0937499999999 573.8125 564.2499999999999 573.4375 573.6249999999999 574.40625C596.28125 576.75 616.4062499999999 585.53125 634.7499999999999 598.8125C636.5 599.96875 637.2812499999999 601.34375 637.2812499999999 603.6875C637.0937499999999 611.3125 637.2812499999999 619.125 637.2812499999999 626.75C637.2812499999999 634.5625 637.0937499999999 642.375 637.2812499999999 650.1875C637.2812499999999 652.9375 636.5 654.09375 633.7499999999999 654.46875C620.0625 656.21875 606.5937499999999 658.75 592.9374999999999 660.125C579.2499999999999 661.28125 565.5937499999999 660.71875 552.3124999999999 656.40625C539.2187499999999 652.125 529.4687499999998 644.3125 525.5624999999998 630.8125C522.4374999999998 620.25 522.4374999999998 609.71875 525.7499999999998 599.1875C528.8749999999999 588.4375 535.9062499999998 581.21875 546.0624999999998 577.3125zM1125 843.75V156.25C1125 104.5 1083 62.5 1031.25 62.5H93.75C42 62.5 0 104.5 0 156.25V843.75C0 895.5 42 937.5 93.75 937.5H1031.25C1083 937.5 1125 895.5 1125 843.75zM719.71875 797.0625C720.4999999999999 793.75 721.46875 790.40625 722.84375 787.09375C755.0625 707.8125 787.09375 628.3125 819.53125 549C822.25 542.15625 822.8437500000001 536.5 819.9062500000001 529.65625C814.4375 517.5625 810.34375 505.0625 804.6562500000001 493.1250000000001C799.5625000000001 482.375 791.5625000000001 474.5625 779.8437500000001 471.2500000000001A72.375 72.375 0 0 0 754.65625 469.5C750.5625 469.875 746.46875 470.875 742.3437500000001 471.0625C736.8750000000001 471.4375000000001 734.1562500000001 468.9062500000001 733.9375000000001 463.25C733.7500000000001 457.78125 733.7500000000001 452.3125 733.9375000000001 447.0312500000001C734.1250000000001 438.0312500000001 737.0625000000002 433.9375000000001 746.0312500000001 432.3750000000001C755.2187500000001 430.8125 764.3750000000001 429.25 773.7500000000001 429.0625C801.6875000000001 428.4687500000001 823.9375000000002 439.59375 838.4062500000001 464.03125C844.0625000000001 473.59375 849.3437500000002 483.75 853.4375000000002 494.09375C892.1250000000001 591.9375 930.5937500000002 690 969.0625000000002 788.03125C970.2500000000002 790.96875 971.2187500000002 793.90625 971.5937500000002 797C972.3750000000002 801.6875 970.2187500000002 804.03125 965.5312500000002 804.21875C954.5937500000002 804.40625 943.8437500000002 804.21875 932.9062500000002 804.21875C926.8437500000002 804.21875 922.5625000000002 801.46875 920.4062500000002 795.8125C919.6250000000002 793.65625 918.6562500000002 791.3125 917.8750000000002 789.15625L861.0312500000002 625.6875C856.9375000000002 613.78125 852.8437500000002 602.0625 848.3437500000003 589.375A73.43750000000001 73.43750000000001 0 0 0 846.7812500000002 593.09375L783.5000000000003 768.46875A1664.0625 1664.0625 0 0 1 773.1562500000003 796.21875C771.4062500000003 801.09375 767.8750000000003 804.03125 762.6250000000003 804.03125C750.1250000000003 804.21875 737.6250000000003 804.4375 725.1250000000003 804.21875C720.8437500000003 804.21875 718.6875000000003 801.09375 719.6562500000003 797zM473.4374999999999 597.65625C476.7499999999999 574.8125 488.2812499999999 557.03125 508.5937499999999 545.71875C527.9375 534.96875 549.03125 533.625 570.5 536.75C595.3125 540.46875 617.1875 551 636.53125 567.03125L639.25 569C640.21875 562.75 641 556.90625 642.1875 551.03125C643.15625 545.96875 646.28125 542.625 650.96875 542.4375C659.96875 542.25 668.75 542.25 677.71875 542.4375C682.21875 542.625 685.15625 545.5625 685.53125 550.0625C685.71875 551.625 685.71875 553.1875 685.71875 554.5625V728C685.71875 735.03125 685.34375 742.0625 684.34375 749.09375C681.21875 770.1875 672.25 787.5625 653.28125 798.71875C642.34375 805.15625 630.21875 808.5 617.75 810.25C611.8750000000001 811.03125 606.03125 811.625 599.96875 812.40625H580.4375C578.875 812.21875 577.3125 811.8125 575.5625000000001 811.8125A226.53124999999997 226.53124999999997 0 0 1 528.3125000000001 804.96875C518.3437500000001 802.4375 508.7812500000001 798.71875 499.0000000000001 795.40625C493.1250000000001 793.4375 490.2187500000001 789.15625 490.4062500000001 782.71875C490.5937500000001 777.25 490.2187500000001 771.78125 490.4062500000001 766.5C490.5937500000001 758.5 493.9375000000001 756.34375 501.5312500000001 758.5C514.2187500000001 761.8125 527.1250000000001 765.34375 540.0000000000001 767.875C560.1250000000001 771.59375 580.4375000000001 773.15625 600.7500000000001 770.21875C611.2812500000001 768.65625 621.2500000000001 765.53125 628.2812500000001 756.53125C634.3437500000001 748.71875 636.4687500000001 739.34375 636.8750000000001 729.78125C637.46875 716.3125 637.2500000000001 702.625 637.46875 689.15625C637.46875 688.375 637.28125 687.78125 637.09375 686.8125C636.3125000000001 686.8125 635.53125 686.8125 634.9375 687A294.62500000000006 294.62500000000006 0 0 1 582.59375 695C564.03125 695.96875 545.6875 694.8125 528.09375 688.75C507 681.3125 490.0000000000001 668.625 480.0625000000001 648.125C472.0625000000001 631.90625 471.0937500000001 614.90625 473.4062500000001 597.71875zM192.78125 791.21875V448.84375C192.78125 447.28125 192.78125 445.5312499999999 192.96875 443.96875C193.375 439.0937500000001 196.28125 435.96875 200.96875 435.78125C212.5 435.59375 224 435.59375 235.53125 435.78125C240.40625 435.78125 243.34375 439.0937500000001 243.53125 443.78125C243.71875 445.34375 243.71875 447.0937500000001 243.71875 448.65625V567.21875C245.46875 565.84375 246.46875 564.875 247.4375 564.09375C276.75 539.6875 310.3125 531.6875 347.25 538.90625C380.6562500000001 545.5625 403.6875 566.0625 418.9375 595.9375C430.28125 618.59375 435.15625 643 435.9375000000001 668.21875C436.9062500000001 696.15625 433.96875 723.6875 422.65625 749.65625C408.78125 781.6875 385.7500000000001 802.96875 350.96875 810C345.6875 811.15625 340.21875 811.5625 334.96875 812.34375H321.28125C318.9375 811.9375 316.59375 811.75 314.25 811.375A131.09375 131.09375 0 0 1 252.125 786.5625C248.21875 783.8125 244.5 780.6875 240.59375 777.78125C240.40625 778.75 240 779.34375 239.8125 780.125C239.03125 784.6250000000001 238.4375 789.09375 237.65625 793.59375C236.5 801.21875 232.78125 804.3437500000001 225.15625 804.53125H206.21875C194.6875 804.71875 192.75 802.5625 192.75 791.25zM964.0625 337.875C958.78125 339.25 954.0937500000002 337.875 949.21875 335.9062500000001A989.1249999999999 989.1249999999999 0 0 0 596.6875 259.7187500000001A983.5312499999999 983.5312499999999 0 0 0 441.2187500000001 268.1250000000001A1033.4375 1033.4375 0 0 0 337.6875000000001 287.46875A963.28125 963.28125 0 0 0 129.28125 363.2500000000001C112.09375 371.84375 95.3125000000001 381.4062500000001 78.3125 390.5937500000001C70.90625 394.6875000000001 66.1875 393.5312500000001 62.3125 386.5000000000001V383.1875C64.65625 380.0625 66.59375 376.5625 69.53125 373.8125A722.09375 722.09375 0 0 1 307.8125000000001 231.4375C350.5937500000001 216 394.5312500000001 204.6874999999999 439.2500000000001 197.2499999999999C466.5937500000001 192.75 493.9375000000001 189.8124999999999 521.65625 188.46875C527.53125 188.28125 533.375 188.09375 539.25 187.6875C540.625 187.6875 541.96875 187.3125 543.34375 187.0937500000001H577.9062500000001C579.2812500000001 187.2812500000001 580.6250000000001 187.6875 582.0000000000001 187.6875A728.8124999999999 728.8124999999999 0 0 1 669.1250000000001 195.5C710.9062500000001 201.75 751.9375 211.3125 791.9687500000001 224.21875C849.7812500000001 242.9687500000001 904.6562500000002 267.96875 954.8437500000002 302.53125C960.3125000000002 306.25 965.9687500000002 309.96875 970.4687500000002 314.625C978.875 323.21875 974.96875 334.9375 964.0312500000002 337.875zM1062.5 392C1060.9375 400.1875 1054.6875 403.34375 1047.65625 405.6875A145.5 145.5 0 0 1 1013.2812499999998 412.125A242.9375 242.9375 0 0 1 949.2187499999998 408.9999999999999C925.7812499999998 404.7187499999999 903.5312499999998 397.0937499999999 883.7812499999999 383.40625A19.46875 19.46875 0 0 1 877.7187499999999 377.53125A9.46875 9.46875 0 0 1 876.7499999999999 370.90625C877.3437499999999 368.375 880.0625 367.78125 882.6249999999999 367.96875C883.8124999999999 367.96875 884.9687499999999 367.96875 886.1562499999999 368.15625L924.2499999999998 372.25C943 374 961.7499999999998 375.1875 980.4999999999998 373.8125C988.4999999999998 373.21875 996.3124999999998 371.46875 1003.9374999999998 369.53125C1012.3437499999998 367.375 1016.0624999999998 360.9375 1016.4374999999998 352.53125C1017.0312499999998 339.4375 1014.0937499999998 326.9375 1010.78125 314.4374999999999C1003.9374999999998 289.2499999999999 994.5625 264.8437499999999 984.8125 240.5937499999999C984.21875 239.0312499999999 983.4375 237.2812499999999 983.25 235.71875C982.46875 230.84375 985.2187499999998 227.90625 989.875 228.8749999999999A17 17 0 0 1 997.6875 232.96875C1004.9062499999998 240 1012.3437499999998 247.0312499999999 1018.40625 254.8437499999999C1039.3124999999998 281.8124999999999 1051.625 312.65625 1058.8437499999998 345.8749999999999C1060.2187499999998 351.7499999999999 1061.1875 357.7812499999999 1062.15625 363.6562499999999C1062.5624999999998 372.8437499999999 1062.5624999999998 382.40625 1062.5624999999998 391.9687499999999z" />
    <glyph glyph-name="cc-amex"
      unicode="&#xE01C;"
      horiz-adv-x="1125" d="M634.96875 672.25C634.96875 704.28125 607.4375 708.1875 581.46875 708.1875L505.09375 708.78125V573.4375H537.125V622.46875H572.28125C608.2187499999999 622.46875 600.5937499999999 602.34375 601.1875 573.4375H633.625V599.8125C633.625 617.78125 630.6875 629.3125 612.125 635.75C626.5625 641.625 635.1875 656.65625 634.9687500000001 672.28125zM577.5312499999999 650.1875H537.0937499999999V680.0625H578.125C588.09375 680.0625 599.03125 678.09375 599.03125 665.59375C599.03125 652.71875 588.6875 650.15625 577.53125 650.15625zM544.9375 475.375H442L400.96875 430.84375L360.9374999999999 475.375H231.0625L230.875 340.03125H358.625L400.21875 384.96875L440.0625 340.03125H502.9687499999999L503.15625 385.53125C540.0625 385.53125 599.4375 376.53125 599.4375 431.03125C599.4375 464.8125 575.40625 475.375 544.9375 475.375zM342.1875 368.5625H262.90625V395.53125H333.8125V423.0625H262.90625V447.46875H344.34375L379.3125 408.03125zM470.7187499999999 352.53125L421.3125 407.40625L470.7187499999999 460.90625zM544.5312499999999 413.0937499999999H503.1250000000001V447.46875H545.1250000000001C556.0625000000001 447.46875 565.0312500000001 442.96875 565.0312500000001 431.0625C565.0312500000001 418.5625000000001 556.0312500000001 413.09375 544.5312500000001 413.09375zM482.8124999999999 680.0624999999999V708.5625H374.40625V573.2187499999999H482.8124999999999V601.1562499999999H406.84375V628.125H480.6562499999999V655.65625H406.8125V680.0625zM1125 501.15625H1124.59375zM744.90625 438.875C744.90625 470.90625 717.375 475.40625 691.96875 475.40625H615.03125L614.84375 340.0625H647.28125L647.46875 389.46875H681.8437500000001C703.34375 389.46875 710.7500000000001 385.5625 710.7500000000001 362.5L710.5625000000001 340.03125H743.0000000000001L743.1875000000001 367C743.1875000000001 384.375 739.6562500000001 396.5 721.6875000000001 402.9375C736.7187500000002 408.9999999999999 744.7500000000001 424.03125 744.9375000000001 438.8749999999999zM687.875 417H647.4375V447.4687500000001H688.46875C698.4374999999999 447.4687500000001 709.375 445.5000000000001 709.375 433.0312500000001C709.375 419.5625000000001 698.84375 417.0312500000001 687.875 417.0312500000001zM350.4062500000001 573.25V708.59375H296.5L258.03125 616.78125L215.65625 708.59375H162.71875V580.28125L107.84375 708.59375H60L2 573.25H36.96875L49.46875 603.125H116.84375L129.34375 573.25H195.34375V679.09375L242.21875 573.25H270.75L317.625 679.09375V573.25zM60.9375 631.25L82.8125 685.15625L105.28125 631.25zM993.375 320.90625V329.6874999999999C972.28125 318.7499999999999 985.75 320.90625 687.3125 320.90625C687.3125 370.1249999999999 687.5 367.5937499999999 687.3125 370.1249999999999C683.9999999999999 370.3124999999999 681.0625 370.3124999999999 668.96875 370.3124999999999C668.96875 335.3437499999999 668.78125 357.0312499999999 668.78125 320.90625H591.4375C591.4375 344.53125 591.625 350.7812499999999 591.625 377.9374999999999C572.09375 366.2187499999999 547.0937499999999 365.4375 524.6249999999999 365.8437499999999C524.6249999999999 337.1249999999999 524.4374999999999 349.625 524.4374999999999 320.90625H428.9374999999999C418.9687499999999 332.03125 423.6562499999999 326.9687499999999 398.8437499999999 354.8749999999999C392.5937499999999 348.0312499999999 373.8437499999999 327.71875 367.4062499999999 320.90625H207.25V501.1874999999999H369.5625C379.3437500000001 490.2499999999999 375.0312500000001 495.1249999999999 399.84375 467.5937499999999C406.09375 474.4375 423.65625 493.7499999999999 430.5 501.1874999999999H543.78125C562.9375 501.1874999999999 578.9375 497.4687499999999 591.2499999999999 490.2499999999998V501.1874999999998C697.3125 501.1874999999998 716.84375 503.9374999999998 739.0937499999999 491.2187499999998V501.1874999999998H891.8124999999999V491.0312499999998C914.0624999999998 504.4999999999998 930.0937499999998 501.1874999999998 1018.5624999999998 501.1874999999998V491.4062499999998C1038.6874999999998 502.9374999999998 1050.9999999999998 501.5624999999998 1124.6249999999998 501.1874999999998V843.78125C1124.6249999999998 895.53125 1082.6249999999998 937.53125 1030.8749999999998 937.53125H93.3749999999998C41.6249999999998 937.53125 -0.3750000000002 895.53125 -0.3750000000002 843.78125V629.34375C17.9999999999998 672.125 38.0937499999998 719.1875 44.7499999999998 734.625H122.2812499999998C130.6874999999998 714.90625 125.4062499999998 727.40625 139.8749999999998 693.40625V734.625H229.7187499999998C235.3749999999998 722.53125 251.4062499999997 687.75 256.8749999999997 676.03125C268.2187499999997 702.59375 276.5937499999998 722.71875 281.4687499999998 734.625H482.6562499999998C482.6562499999998 734.8125 505.1249999999998 734.625 505.3124999999998 734.625C590.6562499999999 734.25 609.9999999999999 736.1875 631.0937499999998 724.28125V734.625H709.0312499999998V716.46875C723.8749999999998 728.375 743.9999999999998 734.625 768.9999999999998 734.625H822.9062499999999C822.9062499999999 733.65625 826.6249999999999 734.03125 827.4062499999998 734.03125H890.6874999999998C898.8749999999998 714.875 895.7812499999998 722.3125 907.8749999999998 693.8125V734.03125H992.4374999999998C1001.9999999999998 718.40625 990.4687499999998 737.5625 1014.3124999999998 698.09375V734.03125H1092.2499999999998V554.34375H1010.9999999999995C1000.4687499999995 571.9375 1008.2812499999995 558.625 985.2187499999995 597.125V554.34375H882.0937499999997C869.5937499999998 583.25 881.9062499999997 554.9375 869.1874999999997 584.21875H832.0624999999997L819.5624999999998 554.34375H767.2187499999998C743.1874999999998 554.34375 723.6562499999998 560.21875 709.2187499999997 571.71875V554.34375H579.3437499999997C578.7499999999998 581.5 579.1562499999997 602.78125 579.1562499999997 602.78125C575.6249999999998 603.375 572.5312499999997 603.15625 559.9999999999998 603.15625V554.1250000000001H295.34375V576.40625C290.46875 565.46875 290.0625 564.875 285.375 554.1250000000001H227.75C219.9375 571.5000000000001 222.09375 566.6250000000001 217.78125 576.40625V554.1250000000001H114.46875L101.96875 584H64.46875L51.96875 554.1250000000001H0V156.2812500000001C0 104.5312500000002 42 62.5312500000001 93.75 62.5312500000001H1031.4375C1083.1875 62.5312500000001 1125.1875 104.5312500000002 1125.1875 156.2812500000001V332.8437500000001C1100.375 316.6250000000001 1061.3125 320.9375000000001 993.34375 320.9375000000001zM1064.25 446.8749999999999H1123.03125V475.4062499999999H1058.78125C1033.78125 475.4062499999999 1012.3125 462.4999999999999 1012.3125 434.9687499999999C1012.3125 370.4999999999999 1095.7187499999998 409.9687499999999 1095.7187499999998 381.4687499999999C1095.7187499999998 371.4999999999999 1087.3125 368.96875 1079.3125 368.96875H1016.8124999999998L1016.6249999999998 340.0624999999999H1079.125C1095.5312499999998 340.0624999999999 1113.5 343.5937499999999 1123.0624999999998 357.4375V407.84375C1102.5625 434.8124999999999 1046.3124999999998 410.3749999999999 1046.3124999999998 434.21875C1046.3124999999998 445.5625 1055.3124999999995 446.90625 1064.2812499999998 446.90625zM952.9374999999998 369.1249999999999H890.0624999999999L889.8749999999999 340.2187499999999H952.7499999999998C981.6562499999998 340.2187499999999 1003.9374999999998 351.15625 1003.9374999999998 383.1874999999999C1003.9374999999998 448.0312499999999 920.1562499999998 405.0624999999999 920.1562499999998 434.5624999999999C920.1562499999998 445.4999999999999 929.7187499999998 447.0624999999998 938.1249999999998 447.0624999999998H997.4999999999998V475.5937499999998H932.6562499999998C907.6562499999998 475.5937499999998 886.7499999999998 462.6874999999998 886.7499999999998 435.1562499999998C886.7499999999998 370.6874999999999 970.1562499999998 410.7499999999999 970.1562499999998 381.6562499999998C969.9687499999998 371.1249999999998 960.9687499999998 369.1562499999999 952.9687499999998 369.1562499999999zM870.4999999999998 447.46875V475.4062499999999H762.6874999999999L762.4999999999999 340.0624999999999H870.3124999999998L870.4999999999998 367.9999999999999L795.0937499999998 368.5937499999999V395.5624999999998H869.1249999999998V423.0937499999998H795.2812499999998V447.4999999999998zM760.5312499999999 658.59375C759.9374999999999 658.21875 757.8124999999999 654.3125 757.8124999999999 643.75C757.8124999999999 632.03125 759.5624999999999 628.71875 759.9687499999999 628.3125A15.531250000000002 15.531250000000002 0 0 1 766.5937499999999 627.34375L780.8437499999999 660.34375C778.6874999999999 660.34375 776.7499999999998 660.53125 774.7812499999999 660.53125C763.8437499999998 660.53125 761.0937499999999 659.15625 760.5312499999999 658.5625zM800.4062499999999 679.09375H800.2187499999999zM768.7499999999998 708.78125C722.8437499999998 708.78125 702.3437499999998 685.34375 702.3437499999998 639.84375C702.3437499999998 596.5 722.2499999999999 573.4375 766.8124999999998 573.4375H804.3124999999998L816.8124999999998 603.3125H883.8124999999997L896.7187499999997 573.4375H962.5312499999995V674.8125L1023.4687499999995 573.4375H1069.5624999999998V708.21875H1036.5625V614.28125L979.7187500000002 708.21875H930.3125V580.46875L875.8125 708.21875H827.375L781.4687499999999 601.78125H767.0312499999999C741.0625 601.78125 735.5937499999999 617.59375 735.5937499999999 640.65625C735.5937499999999 687.15625 766.25 679.71875 800.2499999999999 679.125V708.8125zM850.9687499999998 685.15625L872.8437499999998 631.25H828.3124999999998zM653.5312499999999 708.59375V573.25H686.5312499999999V708.59375z" />
    <glyph glyph-name="cc-apple-pay"
      unicode="&#xE01D;"
      horiz-adv-x="1125" d="M590.21875 573.4375C590.21875 539.84375 569.71875 520.5 533.5625 520.5H486.0937500000001V626.34375H533.7500000000001C569.6875 626.34375 590.1875000000001 607.1875 590.1875000000001 573.40625zM683 451.15625C683 434.9375000000001 697.0625 424.40625 719.125 424.40625C747.25 424.40625 768.34375 442.1875 768.34375 467.1875V482.21875L722.4375 479.28125C696.46875 477.53125 682.9999999999999 467.9375 682.9999999999999 451.15625zM1125 845.6875V158.1875C1125 106.4375000000001 1083 64.4375 1031.25 64.4375H93.75C42 64.4375 0 106.4375000000001 0 158.1875V845.6875C0 897.4375 42 939.4375 93.75 939.4375H1031.25C1083 939.4375 1125 897.4375 1125 845.6875zM249.59375 614.84375C266 613.46875 282.40625 623.03125 292.75 635.15625C302.90625 647.65625 309.5312500000001 664.46875 307.78125 681.4375C293.3125000000001 680.84375 275.3750000000001 671.875 265 659.375C255.625 648.625 247.625 631.25 249.5625000000001 614.84375zM367.96875 469.3437500000001C367.59375 469.7187500000001 329.6875 484.1875000000001 329.28125 527.9375C328.90625 564.46875 359.15625 582.03125 360.53125 583C343.34375 608.4062500000001 316.78125 611.125 307.59375 611.7187500000001C283.78125 613.0937500000001 263.4687500000001 598.2500000000001 252.125 598.2500000000001C240.59375 598.2500000000001 223.40625 611.1250000000001 204.65625 610.7500000000001A70 70 0 0 1 145.09375 574.4375000000002C119.5 530.3125000000002 138.4375 465.0625000000001 163.25 429.1250000000003C175.375 411.3437500000003 190 391.8125000000003 209.15625 392.5937500000003C227.3125000000001 393.3750000000001 234.5625 404.3125000000003 256.40625 404.3125000000003C278.46875 404.3125000000003 284.71875 392.5937500000003 303.875 392.7812500000003C323.78125 393.1562500000003 336.09375 410.5625000000001 348.40625 428.3125000000003C361.875 448.6250000000001 367.5625 468.1562500000001 367.9375 469.3437500000002zM632.4375 573.625C632.4375 625.5625 596.3125 661.125 544.75 661.125H444.75V394.71875H486.1562499999999V485.75H543.3749999999999C595.71875 485.75 632.4375 521.6875 632.4375 573.65625zM808.21875 527.34375C808.21875 565.8125 777.34375 590.625 730.09375 590.625C686.15625 590.625 653.71875 565.4375 652.5624999999999 531.0625H689.8749999999999C693 547.46875 708.2187499999999 558.21875 728.9374999999999 558.21875C754.3437499999999 558.21875 768.3749999999999 546.5 768.3749999999999 524.625V509.9687500000001L716.8125 506.8437500000001C668.75 503.9062500000001 642.78125 484.1875000000001 642.78125 450.0000000000001C642.78125 415.4375 669.53125 392.5937500000001 708 392.5937500000001C733.96875 392.5937500000001 758 405.6875000000001 768.9374999999999 426.5625000000001H769.7187499999999V394.5312500000001H807.9999999999999V527.3437500000001zM1007.8125 588.09375H965.8125L917.1874999999998 430.6875000000001H916.40625L867.78125 588.09375H824.21875L894.34375 394.1562500000001L890.625 382.4375000000001C884.375 362.5312500000001 874.03125 354.7187500000001 855.65625 354.7187500000001C852.34375 354.7187500000001 846.09375 355.0937500000001 843.5625 355.3125V323.2812500000001C845.90625 322.5000000000001 856.25 322.3125000000001 859.375 322.3125000000001C899.8125 322.3125000000001 918.75 337.7500000000001 935.34375 384.4375000000001L1007.8125 588.1562500000001z" />
    <glyph glyph-name="cc-diners-club"
      unicode="&#xE01E;"
      horiz-adv-x="1125" d="M468.15625 843.9375C278.90625 843.9375 124.78125 690.4375 124.78125 500.5625C124.78125 311.3125 278.875 157.21875 468.15625 157.21875C658 157.21875 811.53125 311.3125 811.53125 500.5937499999999A343.12500000000006 343.12500000000006 0 0 1 468.15625 843.96875zM390.25 297.84375C308.8125 328.90625 250.78125 407.9999999999999 250.78125 500.5937499999999S308.78125 672.28125 390.25 703.90625V297.84375zM546.09375 297.25V703.875C627.5312500000001 672.25 685.53125 593.125 685.53125 500.5624999999999S627.53125 328.875 546.09375 297.25zM1031.25 937.5H93.75C42 937.5 0 895.5 0 843.75V156.25C0 104.5 42 62.5 93.75 62.5H1031.25C1083 62.5 1125 104.5 1125 156.25V843.75C1125 895.5 1083 937.5 1031.25 937.5zM643.9375 125H467.5625000000001C260.15625 125 89.03125 292 89.03125 496.46875C89.03125 720.28125 260.125 875 467.5625 875H643.9375C849.03125 875 1035.9375 720.3125 1035.9375 496.46875C1035.9375 291.96875 849.03125 125 643.9375 125z" />
    <glyph glyph-name="cc-discover"
      unicode="&#xE01F;"
      horiz-adv-x="1125" d="M1016.40625 617C1016.40625 632.4375 1005.6562499999998 640.625 985.9374999999998 640.625H976.3749999999998V592H985.5624999999998C1005.6874999999998 592 1016.4374999999998 600.59375 1016.4374999999998 617zM1031.25 937.5H93.75C42 937.5 0 895.5 0 843.75V156.25C0 104.5 42 62.5 93.75 62.5H1031.25C1083 62.5 1125 104.5 1125 156.25V843.75C1125 895.5 1083 937.5 1031.25 937.5zM945.125 666.21875C989.28125 666.21875 1048.4375 674.21875 1048.4375 618.5625C1048.4375 593.96875 1035.53125 578.125 1011.90625 573.25L1062.28125 506.0625H1024L980.65625 570.125H976.375V506.0624999999999H945.125zM835.9375 666H924.40625V638.65625H867.1875V603.125H922.46875V576.15625H867.1875V532.8125H924.40625V505.8437500000001H835.9375zM701.75 666L744.53125 558.1875L787.875 666H822.0625L752.71875 501.5625H735.90625L667.53125 666zM592.5625 671.875A87.06249999999999 87.06249999999999 0 1 0 592.5625 497.6875000000001A87.06249999999999 87.06249999999999 0 1 0 592.5625 671.875zM496.28125 659.96875V622.84375C457.03125 662.09375 404.875 632.03125 404.875 585.71875C404.875 536.875 458.5937499999999 510.53125 496.28125 548.21875V511.09375C438.28125 483.1562500000001 372.65625 522.21875 372.65625 585.71875C372.65625 646.65625 437.3125 689.25 496.28125 659.9375zM306.4375000000001 530.46875C328.71875 530.46875 350.1875000000001 560.34375 300.0000000000001 578.125C270.6875 588.875 260.5625000000001 600.40625 260.5625000000001 622.46875C260.5625000000001 667.78125 320.3125 683.8125 357.625 650.40625L341.21875 629.3125C320.90625 651.96875 292.59375 641.40625 292.59375 624.4375C292.59375 615.84375 297.875 610.96875 316.625 604.3125C352.15625 591.4375 362.71875 579.90625 362.71875 554.3125C362.71875 496.6875000000001 286.9375 481.2500000000001 252.1875 532.25L272.3125 551.59375C279.53125 537.71875 291.65625 530.5 306.5 530.5zM108.1875 505.8437500000001H62.5V666H108.1875C159.15625 666 194.3125 632.78125 194.3125 585.71875C194.3125 549.59375 168.53125 505.8437500000001 108.1875 505.8437500000001zM240.0312500000001 505.8437500000001H208.78125V666H240.0312500000001zM1062.5 154.28125A29.53125 29.53125 0 0 0 1033.1875 124.9687500000001H249.96875C620.28125 194.5000000000001 997.4375 396.84375 1062.46875 437.4687500000001zM144.71875 625.78125C134.5625 635.34375 122.0625 638.65625 101.9375 638.65625H93.71875V532.8125H101.9375C122.0625 532.8125 135.125 536.71875 144.71875 545.3125C155.84375 555.46875 162.09375 570.3125 162.09375 585.75S155.84375 616.03125 144.71875 625.78125z" />
    <glyph glyph-name="cc-jcb"
      unicode="&#xE020;"
      horiz-adv-x="1125" d="M842.78125 522.84375V585.9375C923.25 585.9375 917.96875 585.5625 917.96875 585.5625A31 31 0 0 0 943.9375 554.3125C943.9375 537.125 932.21875 526 917.96875 523.4375C915.625 522.65625 911.53125 522.84375 842.78125 522.84375zM926.3750000000002 483.40625C920.90625 484.78125 919.9375000000002 484.375 842.78125 484.375V416C920.1250000000002 416 920.90625 415.625 926.3750000000002 416.96875C941.0312500000002 419.90625 952.7500000000002 432.59375 952.7500000000002 450.1875A33.4375 33.4375 0 0 1 926.3750000000002 483.4062499999999zM1125 843.75V156.25C1125 104.5 1083 62.5 1031.25 62.5H93.75C42 62.5 0 104.5 0 156.25V843.75C0 895.5 42 937.5 93.75 937.5H1031.25C1083 937.5 1125 895.5 1125 843.75zM355.46875 624.40625H244.125C244.125 493.3437499999999 265.03125 410.15625 174.21875 410.15625C136.125 410.15625 98.4375 421.28125 62.5 439.0625V384.375C121.09375 368.1562500000001 195.3125 368.1562500000001 195.3125 368.1562500000001C386.53125 368.1562500000001 355.46875 461.3125 355.46875 624.40625zM704.09375 615.625C580.28125 646.875 381.8125 644.71875 381.8125 499.8125C381.8125 349.21875 593.1249999999999 356.0625 704.09375 384.1875V439.46875C611.1249999999999 391.21875 494.1249999999999 396.5 494.1249999999999 500.03125S610.9374999999999 608.625 704.09375 560.96875V615.65625zM1062.5 440.4375C1062.5 476.5625 1030.28125 500.0000000000001 988.28125 502.9375000000001V504.5000000000001C1026.375 509.7812500000001 1047.46875 534.78125 1047.46875 563.46875C1047.46875 600.5937500000001 1016.8124999999998 622.0625 975.1875 624.0312500000001C975.1875 624.0312500000001 987.4999999999998 624.6250000000001 740.2187499999999 624.6250000000001V375.5937500000001H979.8749999999998C1027.34375 375.40625 1062.5 400.7812500000001 1062.5 440.4375z" />
    <glyph glyph-name="cc-mastercard"
      unicode="&#xE021;"
      horiz-adv-x="1125" d="M943.15625 198.625C943.15625 185.34375 934.15625 175.78125 921.28125 175.78125C908 175.78125 899.4062500000001 185.9375 899.4062500000001 198.625S908 221.4687500000001 921.28125 221.4687500000001C934.1875000000002 221.4687500000001 943.15625 211.3125000000001 943.15625 198.625zM336.125 221.4687500000001C322.25 221.4687500000001 314.2500000000001 211.3125000000001 314.2500000000001 198.625S322.2500000000001 175.78125 336.125 175.78125C348.8125 175.78125 357.4062500000001 185.34375 357.4062500000001 198.625C357.2187500000001 211.3125 348.8125 221.4687500000001 336.125 221.4687500000001zM565.625 222.0625C555.09375 222.0625 548.625 215.21875 547.0625 205.0625H584.375C582.625 216.1875000000001 575.78125 222.0625 565.6249999999999 222.0625zM776.1562500000001 221.4687500000001C762.8750000000001 221.4687500000001 754.8750000000001 211.3125000000001 754.8750000000001 198.625S762.8750000000001 175.78125 776.1562500000001 175.78125C789.4375000000001 175.78125 798.0312500000001 185.34375 798.0312500000001 198.625C798.0312500000001 211.3125 789.4375000000001 221.4687500000001 776.1562500000001 221.4687500000001zM983.0000000000002 170.5000000000001C983.0000000000002 169.9062500000001 983.59375 169.5312500000001 983.59375 168.3437500000001C983.59375 167.7500000000002 983.0000000000002 167.3750000000001 983.0000000000002 166.1875000000001C982.4062500000002 165.5937500000002 982.4062500000002 165.2187500000002 982.0312500000002 164.6250000000001C981.4375000000002 164.0312500000002 981.0625000000002 163.6562500000001 979.8750000000002 163.6562500000001C979.2812500000002 163.0625000000002 978.9062500000002 163.0625000000002 977.7187500000002 163.0625000000002C977.1250000000002 163.0625000000002 976.7500000000002 163.0625000000002 975.5625000000002 163.6562500000001C974.9687500000002 163.6562500000001 974.5937500000002 164.2500000000001 974.0000000000002 164.6250000000001C973.4062500000002 165.2187500000001 973.0312500000002 165.5937500000001 973.0312500000002 166.1875000000001C972.4375000000005 167.1562500000001 972.4375000000005 167.7500000000002 972.4375000000005 168.3437500000001C972.4375000000005 169.3125000000001 972.4375000000005 169.9062500000001 973.0312500000002 170.5000000000001C973.0312500000002 171.4687500000001 973.6250000000002 172.0625000000001 974.0000000000002 172.6562500000001C974.5937500000002 173.25 974.9687500000002 173.25 975.5625000000002 173.625C976.5312500000002 174.21875 977.1250000000002 174.21875 977.7187500000002 174.21875C978.6875000000002 174.21875 979.2812500000002 174.21875 979.8750000000002 173.625C980.8437500000002 173.0312500000001 981.4375000000002 173.0312500000001 982.0312500000002 172.6562500000001S982.4062500000002 171.4687500000001 983.0000000000002 170.5000000000001zM978.7187500000002 167.7812500000001C979.6875 167.7812500000001 979.6875 168.375 980.2812500000002 168.375C980.875 168.96875 980.875 169.34375 980.875 169.9375000000001S980.875 170.90625 980.2812500000002 171.5000000000001C979.6875000000002 171.5000000000001 979.3125000000002 172.09375 978.1250000000002 172.09375H975.0000000000002V165.25H976.5625000000002V167.96875H977.1562500000002L979.3125 165.25H980.875L978.7187500000002 167.78125zM1125 841.78125V154.28125C1125 102.5312500000001 1083 60.53125 1031.25 60.53125H93.75C42 60.53125 0 102.5312500000001 0 154.28125V841.78125C0 893.53125 42 935.53125 93.75 935.53125H1031.25C1083 935.53125 1125 893.53125 1125 841.78125zM125 569.15625C125 419.75 246.28125 298.65625 395.5 298.65625C448.625 298.65625 500.7812500000001 314.65625 544.90625 343.7812499999999C402.53125 459.5937499999999 403.5 678.1562499999999 544.90625 793.96875A270.625 270.625 0 0 1 395.5000000000001 839.09375C246.28125 839.28125 125 718 125 569.1875zM562.5 356.65625C700.1875 464.09375 699.59375 673.4375 562.5 781.46875C425.40625 673.46875 424.8125000000001 463.875 562.5 356.65625zM284.5625 207.625C284.5625 224.625 273.4375 235.7499999999999 255.84375 236.34375C246.875 236.34375 237.28125 233.625 230.84375 223.65625C226.15625 231.65625 218.15625 236.34375 207 236.34375A24.75 24.75 0 0 1 186.3125 225.8125V234.4062499999999H170.28125V162.7187499999999H186.3125C186.3125 199.6249999999999 181.4375 221.6874999999999 203.90625 221.6874999999999C223.84375 221.6874999999999 219.9375 201.7812499999999 219.9375 162.7187499999999H235.375C235.375 198.4687499999999 230.5 221.6874999999999 252.9375 221.6874999999999C272.84375 221.6874999999999 268.9375 202.1562499999999 268.9375 162.7187499999999H284.9375V207.6562499999999zM372.25 234.375H356.8125V225.78125A28.15625 28.15625 0 0 1 333.96875 236.3125C313.84375 236.3125 298.4375 220.3125 298.4375 198.625C298.4375 176.7500000000001 313.875 160.9375000000001 333.96875 160.9375000000001C344.125 160.9375000000001 351.5625 164.6562500000001 356.8125 171.4687500000001V162.46875H372.25V234.3437500000001zM451.3749999999999 184.375C451.3749999999999 213.6874999999999 406.65625 200.375 406.65625 214.0624999999999C406.65625 225.1875 429.90625 223.4375 442.78125 216.2187499999999L449.21875 228.9062499999999C430.84375 240.8124999999999 390.25 240.6249999999999 390.25 212.9062499999999C390.25 184.9687499999999 434.9687499999999 196.6874999999999 434.9687499999999 183.5937499999999C434.9687499999999 171.2812499999999 408.59375 172.2499999999999 394.5312499999999 182.0312499999999L387.6874999999999 169.7187499999999C409.5624999999999 154.8749999999999 451.3437499999999 157.9999999999999 451.3437499999999 184.375zM520.5 166.21875L516.21875 179.5C508.7812499999999 175.40625 492.4062499999999 170.90625 492.4062499999999 187.5V219.9375H517.9999999999999V234.375H492.4062499999999V256.25H476.4062499999999V234.375H461.5624999999999V220.125H476.4062499999999V187.5C476.4062499999999 153.125 510.1874999999999 159.375 520.5312499999999 166.21875zM546.5 192.375H600.21875C600.21875 224 585.78125 236.53125 566.25 236.53125C545.53125 236.53125 530.71875 221.09375 530.71875 198.84375C530.71875 158.8125 574.875 152.15625 596.75 171.125L589.3125 182.84375C574.0625 170.34375 551.03125 171.5 546.53125 192.40625zM661.90625 234.375C652.90625 238.28125 639.25 237.90625 632.21875 225.78125V234.375H616.21875V162.6875H632.21875V203.125C632.21875 225.78125 650.7812500000001 222.84375 657.2187500000001 219.53125L661.90625 234.375zM682.625 198.625C682.625 220.875 705.2812500000001 228.125 723.0625 215.03125L730.5 227.71875C707.84375 245.4999999999999 666.625 235.71875 666.625 198.40625C666.625 159.71875 710.375 151.90625 730.5 169.09375L723.0625 181.78125C705.0937500000001 169.09375 682.625 176.6875 682.625 198.59375zM812.875 234.375H796.875V225.78125C780.65625 247.28125 738.46875 235.1562500000001 738.46875 198.625C738.46875 161.1250000000001 782.21875 150.375 796.875 171.4687500000001V162.46875H812.875V234.3437500000001zM878.71875 234.375C874.03125 236.71875 857.21875 240.03125 849.03125 225.78125V234.375H833.59375V162.6875H849.03125V203.125C849.03125 224.625 866.625 223.25 874.03125 219.53125L878.71875 234.375zM957.40625 263.46875H941.96875V225.78125C925.96875 247.0625000000001 883.5625 235.75 883.5625 198.625C883.5625 160.7500000000001 927.5 150.5625 941.96875 171.4687500000001V162.46875H957.40625V263.4375zM972.28125 410.15625V401.15625H973.84375V410.15625H977.5625V411.71875H968.5625V410.15625H972.28125zM985.15625 168.34375C985.15625 169.3125 985.15625 170.5 984.5625 171.4687500000001C983.9687500000002 172.0625 983.59375 173.0312500000001 983 173.625S981.4375 174.59375 980.84375 175.1875C979.875 175.1875 978.6875 175.78125 977.71875 175.78125C977.125 175.78125 976.15625 175.1875 975 175.1875A10.718750000000002 10.718750000000002 0 0 1 972.84375 173.625C971.875 173.0312500000001 971.28125 172.0625 971.28125 171.4687500000001C970.6875 170.5000000000001 970.6875 169.3125000000001 970.6875 168.34375C970.6875 167.7500000000001 970.6875 166.78125 971.28125 165.625C971.28125 165.0312500000001 971.8749999999998 164.0625 972.84375 163.46875A6.71875 6.71875 0 0 1 975 161.90625A5.218750000000001 5.218750000000001 0 0 1 977.71875 161.3125000000001C978.6874999999998 161.3125000000001 979.8749999999998 161.3125000000001 980.84375 161.90625C981.4375 162.5 982.40625 162.875 983 163.46875S983.96875 165.0312500000001 984.5625 165.625C985.15625 166.8125 985.15625 167.78125 985.15625 168.34375zM991.4062499999998 411.90625H988.6874999999998L985.5624999999998 405.0625L982.4374999999998 411.90625H979.7187499999998V401.375H981.2812499999998V409.375L984.4062499999998 402.53125H986.5624999999998L989.2812499999998 409.375V401.375H991.4374999999998V411.90625zM1000 569.15625C1000 718 878.71875 839.28125 729.5 839.28125C676.3750000000001 839.28125 624.21875 823.25 580.0937500000001 794.15625C720.9062500000001 678.34375 723.0625 459.1875 580.0937500000001 343.9687499999999A271.625 271.625 0 0 1 729.5 298.84375C878.71875 298.65625 1000 419.75 1000 569.15625z" />
    <glyph glyph-name="cc-paypal"
      unicode="&#xE022;"
      horiz-adv-x="1125" d="M363.875 495.71875C363.875 471.90625 344.9375 453.71875 320.90625 453.71875C302.9375 453.71875 289.65625 463.8749999999999 289.65625 483.0312499999999C289.65625 506.8437499999999 308.21875 525.9999999999999 332.03125 525.9999999999999C350.1875 525.9999999999999 363.875 514.875 363.875 495.7187499999999zM157.21875 590.4375H148.03125C145.09375 590.4375 142.15625 588.46875 141.78125 585.15625L133.375 533L149.40625 533.59375C170.90625 533.59375 187.5 536.53125 191.40625 561.3125C195.90625 587.5 179.28125 590.40625 157.21875 590.40625zM711.90625 590.4375H703.125C699.59375 590.4375 697.25 588.46875 696.875 585.15625L688.6875 533L704.3125 533.59375C729.71875 533.59375 747.28125 539.46875 747.28125 568.75C747.09375 589.4375 728.53125 590.4375 711.9375 590.4375zM1125 843.75V156.25C1125 104.5 1083 62.5 1031.25 62.5H93.75C42 62.5 0 104.5 0 156.25V843.75C0 895.5 42 937.5 93.75 937.5H1031.25C1083 937.5 1125 895.5 1125 843.75zM250.59375 579.28125C250.59375 620.3125 218.9375 633.96875 182.8125 633.96875H104.6875C99.8125 633.96875 94.90625 630.0625 94.53125 624.78125L62.5 425.375C61.90625 421.46875 64.84375 417.5625 68.75 417.5625H105.875C111.15625 417.5625 116.03125 423.21875 116.625 428.6875L125.40625 480.65625C127.375 494.71875 151.1875 489.84375 160.5625 489.84375C216.40625 489.84375 250.59375 523.0625 250.59375 579.3125zM415.03125 562.125H377.90625C370.46875 562.125 370.09375 551.375 369.71875 546.125C358.375 562.71875 342 565.65625 323.4375 565.65625C275.59375 565.65625 239.0624999999999 523.65625 239.0624999999999 477.375C239.0624999999999 439.28125 262.90625 414.5 300.96875 414.5C318.5625 414.5 340.40625 424.0625 352.71875 437.75A52.8125 52.8125 0 0 1 350.75 425.65625C350.75 421.15625 352.71875 417.84375 357 417.84375H390.5937499999999C395.875 417.84375 400.375 423.5 401.3437499999999 428.96875L421.2499999999999 554.5625C421.8437499999999 558.28125 418.90625 562.1875 415 562.1875zM494.1562499999999 370.90625L618.5624999999999 551.75C619.5312499999999 552.71875 619.5312499999999 553.71875 619.5312499999999 555.0625C619.5312499999999 558.375 616.5937499999998 561.90625 613.2812499999999 561.90625H575.7812499999999A11.09375 11.09375 0 0 1 567 557.03125L515.25 480.8437499999999L493.7499999999999 554.0937499999999A11.875000000000002 11.875000000000002 0 0 1 483 561.9062499999999H446.46875C443.15625 561.9062499999999 440.21875 558.3749999999999 440.21875 555.0624999999999C440.21875 552.71875 478.3125 444.1249999999999 481.6249999999999 433.7812499999999C476.3437499999999 426.3437499999999 441.59375 377.9062499999999 441.59375 372.0624999999999C441.59375 368.5312499999999 444.53125 365.8124999999999 447.84375 365.8124999999999H485.3437499999999A11.406249999999998 11.406249999999998 0 0 1 494.1249999999999 370.9062499999999zM805.28125 579.28125C805.28125 620.3125 773.6562499999999 633.96875 737.4999999999999 633.96875H659.96875A10.75 10.75 0 0 1 649.21875 624.78125L617.5937499999999 425.5625C617.2187499999999 421.65625 620.1249999999999 417.75 623.8437499999999 417.75H663.8749999999999C667.7812499999999 417.75 670.7187499999999 420.6875 671.6874999999999 423.9999999999999L680.4687499999999 480.6562499999999C682.4374999999998 494.7187499999999 706.2499999999998 489.8437499999999 715.6249999999999 489.8437499999999C771.0937499999998 489.8437499999999 805.2812499999999 523.0625 805.2812499999999 579.3124999999999zM969.71875 562.125H932.59375C925.15625 562.125 924.78125 551.375 924.1875 546.125C913.4375 562.71875 896.84375 565.65625 877.90625 565.65625C830.0625 565.65625 793.53125 523.65625 793.53125 477.375C793.53125 439.28125 817.34375 414.5 855.4375000000001 414.5C873.5937500000001 414.5 895.46875 424.0625 907.1875 437.75C906.5937500000002 434.8124999999999 905.2187500000002 428.5625 905.2187500000002 425.65625C905.2187500000002 421.15625 907.1875 417.84375 911.46875 417.84375H945.25C950.53125 417.84375 955.03125 423.5 956.0000000000002 428.96875L975.9062500000002 554.5625C976.5 558.28125 973.5625000000002 562.1875 969.6562500000002 562.1875zM1062.5 627.15625C1062.5 631.0625 1059.5625 634 1056.25 634H1020.125C1017.1874999999998 634 1014.2499999999998 631.65625 1013.8749999999998 628.71875L982.2499999999998 425.59375L981.6562499999998 424.625C981.6562499999998 421.09375 984.5937499999998 417.78125 988.4999999999998 417.78125H1020.7187499999998C1025.5937499999998 417.78125 1030.5 423.4375 1030.875 428.90625L1062.53125 626.5625V627.15625zM886.71875 525.96875C862.90625 525.96875 844.34375 507.0312500000001 844.34375 483.0000000000001C844.34375 464.0625 858.0312499999999 453.6875000000001 875.96875 453.6875000000001C899.40625 453.6875000000001 918.34375 471.6562500000001 918.34375 495.6875000000002C918.53125 514.8437500000002 904.875 525.9687500000002 886.71875 525.9687500000002z" />
    <glyph glyph-name="cc-stripe"
      unicode="&#xE023;"
      horiz-adv-x="1125" d="M961.71875 568.75C944.3437499999998 568.75 925.1874999999998 555.65625 925.1874999999998 524.40625H996.875C996.875 555.65625 978.71875 568.75 961.71875 568.75zM732.4375 563.65625C716.4375 563.65625 706.46875 558 699.21875 549.96875L699.59375 446.84375C706.4375 439.6249999999999 716.1875 433.75 732.40625 433.75C758 433.75 775.1875 461.6874999999999 775.1875 498.9687499999999C775.1875 535.28125 757.5937500000001 563.8125 732.40625 563.625zM1031.25 937.5H93.75C42 937.5 0 895.5 0 843.75V156.25C0 104.5 42 62.5 93.75 62.5H1031.25C1083 62.5 1125 104.5 1125 156.25V843.75C1125 895.5 1083 937.5 1031.25 937.5zM238.6875 450.96875C238.6875 400.96875 199.03125 372.65625 141.21875 372.25C117.375 372.25 91.21875 376.9374999999999 65.4375 388.0625V454.28125C88.875 441.78125 118.375 432.21875 141.40625 432.21875C156.84375 432.21875 167.96875 436.3125 167.96875 449.21875C167.96875 482.4375 62.5 469.9375 62.5 546.6875C62.5 595.90625 100 625.21875 156.25 625.21875C179.28125 625.21875 202.15625 621.6875 225.1875 612.53125V547.28125C204.09375 558.625 177.34375 565.0624999999999 156.25 565.0624999999999C141.59375 565.0624999999999 132.625 560.7812499999999 132.625 550.03125C132.625 518.78125 238.6875 533.6249999999999 238.6875 451zM373.0625 561.53125H320.3125V462.9062500000001C320.3125 422.09375 364.25 434.7812500000001 373.0625 438.2812500000001V381.84375C363.875 376.75 347.0937500000001 372.65625 324.4375000000001 372.65625C283.2187500000001 372.65625 252.3750000000001 402.9375000000001 252.3750000000001 443.9375L252.7500000000001 666.40625L320.5312500000001 680.875V620.71875H373.0625000000001zM517.59375 556.84375C508.8125 559.78125 481.0624999999999 563.875 464.65625 542.375V377.5312500000001H395.3125V620.6875H455.28125L459.5625000000001 600.1875C475.7812500000001 630.0625 508.1875 624 517.375 620.6875H517.5625zM603.71875 377.53125H534V620.6875H603.7187500000001zM603.71875 656.625L534 641.78125V698.21875L603.7187500000001 713.0625zM748.4375 372.4687499999999C724.21875 372.4687499999999 709.375 382.8124999999999 699.40625 390.0624999999999L699.21875 311.5624999999999L629.875 296.9062499999998V620.75H691L694.5312499999999 603.5625A78.37500000000001 78.37500000000001 0 0 0 748.8437499999999 625.25C797.46875 625.25 843.3749999999999 581.3125 843.3749999999999 500.6562499999999C843.3749999999999 412.5625 798.0624999999999 372.71875 748.4374999999999 372.53125zM1061.71875 473.0312499999999H925.96875C929.09375 440.5937499999999 952.9375 431.0312499999999 979.875 431.0312499999999C1007.4062500000002 431.0312499999999 1029.0937500000002 436.9062499999998 1048.03125 446.4687499999999V390.5937499999999C1029.09375 380.2499999999999 1004.28125 372.6249999999999 971.09375 372.6249999999999C903.5 372.6249999999999 856.25 414.9999999999999 856.25 498.5937499999998C856.25 569.2812499999998 896.2812499999999 625.3437499999999 962.3124999999998 625.3437499999999C1028.125 625.3437499999999 1062.5 569.2812499999998 1062.5 498.1874999999999C1062.5 491.3437499999998 1061.90625 476.9062499999999 1061.71875 472.9999999999999z" />
    <glyph glyph-name="cc-visa"
      unicode="&#xE024;"
      horiz-adv-x="1125" d="M918.15625 548.25S933 475.59375 936.3125 460.34375H871.09375C877.53125 477.7187500000001 902.34375 545.3125 902.34375 545.3125C901.96875 544.71875 908.78125 563.09375 912.6875 574.40625L918.15625 548.21875zM1125 843.75V156.25C1125 104.5 1083 62.5 1031.25 62.5H93.75C42 62.5 0 104.5 0 156.25V843.75C0 895.5 42 937.5 93.75 937.5H1031.25C1083 937.5 1125 895.5 1125 843.75zM297.84375 353.125L421.2812500000001 656.25H338.2812500000001L261.5312500000001 449.21875L253.1250000000001 491.2187500000001L225.7812500000001 630.6875C221.28125 650.03125 207.40625 655.5 190.2187500000001 656.28125H63.84375L62.46875 650.21875C93.34375 642.40625 120.875 631.0625 144.90625 616.8125L214.8125 353.125H297.8125zM482.2187500000001 352.75L531.4375 656.28125H452.9375L403.90625 352.75H482.2187500000001zM755.46875 451.9375C755.84375 486.5 734.75 512.875 689.6562500000001 534.5625C662.1250000000001 548.4375 645.3125000000001 557.8125 645.3125000000001 572.0625C645.6875000000001 584.9375 659.5625 598.25 690.4375 598.25A134.375 134.375 0 0 0 748.84375 586.71875L755.8750000000001 583.40625L766.6250000000001 649.03125A194.93750000000003 194.93750000000003 0 0 1 696.3125000000001 661.90625C618.7812500000001 661.90625 564.2812500000001 620.5 563.8750000000001 561.5C563.2812500000002 517.9375 602.9375000000001 493.71875 632.6250000000001 479.0625C662.9062500000001 464.2187499999999 673.2500000000001 454.4374999999999 673.2500000000001 441.375C672.8750000000001 421.0625 648.6250000000001 411.6875 626.1875000000001 411.6875C594.9375000000001 411.6875 578.1250000000001 416.5625 552.5625000000001 427.9062499999999L542.2187500000001 432.7812499999999L531.28125 364.6249999999999C549.625 356.2187499999999 583.6250000000001 348.8124999999999 618.7812500000001 348.4062499999999C701.1875000000001 348.2187499999999 754.9062500000001 389.0312499999999 755.5000000000001 451.9374999999999zM1031.25 352.75L967.96875 656.28125H907.2187500000002C888.46875 656.28125 874.21875 650.8125 866.1875000000001 631.09375L749.5937500000001 352.78125H832.0000000000001S845.4687500000001 390.28125 848.40625 398.28125H949.1875000000002C951.53125 387.53125 958.5625000000002 352.78125 958.5625000000002 352.78125H1031.21875z" />
    <glyph glyph-name="check"
      unicode="&#xE025;"
      horiz-adv-x="1000" d="M339.65625 141.78125L14.65625 466.7812499999999A50 50 0 0 0 14.65625 537.5L85.375 608.21875A50 50 0 0 0 156.09375 608.21875L375.03125 389.2812499999999L843.96875 858.21875A50 50 0 0 0 914.6875000000002 858.21875L985.40625 787.5A50 50 0 0 0 985.40625 716.78125L410.4062500000001 141.7812500000001A50 50 0 0 0 339.6875000000001 141.7812500000001z" />
    <glyph glyph-name="chrome"
      unicode="&#xE026;"
      horiz-adv-x="968.75" d="M256.84375 575.1875L107.625 804.5C200.59375 920.125 340.0625 983.78125 482.6249999999999 984.375A480.18750000000006 480.18750000000006 0 0 0 726.375 919.53125A484.84375 484.84375 0 0 0 916.59375 718.375L515.625 739.46875C402.15625 746.125 294.125 682.25 256.84375 575.21875zM321.09375 500C321.09375 409.78125 394.15625 336.71875 484.375 336.71875S647.65625 409.75 647.65625 500S574.625 663.28125 484.3750000000001 663.28125S321.0937500000001 590.4375 321.0937500000001 500zM936.1250000000002 674.21875L663.28125 660.15625C737.3125 573.625 738.46875 448.84375 676.1875 353.125L457.2500000000001 16.40625A482.5 482.5 0 0 1 726.40625 80.65625C936.15625 201.75 1021.1250000000002 455.65625 936.15625 674.21875zM261.1250000000001 407.03125L78.90625 765.4375A484.0625 484.0625 0 0 1 0 500C0 257.8125 177.34375 57.21875 409.1875 21.6875000000001L533.59375 265.4375000000001C421.09375 244.3437500000001 312.5 306.0625000000001 261.125 407.0312500000001z" />
    <glyph glyph-name="codepen"
      unicode="&#xE027;"
      horiz-adv-x="1000" d="M981.03125 688.0625L524 992.75C508.4062500000001 1002.34375 491.75 1002.4375 476.0000000000001 992.75L18.96875 688.0625C7.25 680.25 0 666.3125 0 652.34375V347.65625C0 333.71875 7.25 319.75 18.96875 311.9375L476 7.21875C491.59375 -2.375 508.25 -2.46875 524 7.21875L981.03125 311.9375C992.75 319.75 1000 333.6875 1000 347.65625V652.34375C1000 666.28125 992.75 680.25 981.03125 688.0625zM542.96875 876.6875L879.46875 652.34375L729.34375 551.90625L542.96875 676.34375V876.6875zM457.03125 876.6875V676.34375L270.65625 551.90625L120.53125 652.34375L457.03125 876.6875zM85.9375 572L193.625 500L85.9375 428V571.96875zM457.03125 123.3437500000001L120.53125 347.6875L270.6562500000001 448.125L457.0312500000001 323.6875V123.3437500000001zM500 398.46875L348.21875 500.0312500000001L500 601.59375L651.78125 500.03125L500 398.46875zM542.96875 123.3437500000001V323.6875000000001L729.34375 448.1250000000001L879.46875 347.6875000000001L542.96875 123.3437500000001zM914.0625 428.0312500000001L806.375 500.0312500000001L914.0625 572.0312500000001V428.0625000000001z" />
    <glyph glyph-name="comment"
      unicode="&#xE028;"
      horiz-adv-x="1000" d="M500 937.5C223.8125 937.5 0 755.65625 0 531.25C0 434.375 41.78125 345.6875 111.34375 275.96875C86.9375 177.53125 5.28125 89.84375 4.3125 88.84375C0 84.34375 -1.15625 77.71875 1.375 71.84375S9.375 62.46875 15.625 62.46875C145.125 62.46875 242.1875 124.59375 290.21875 162.84375A595.625 595.625 0 0 1 500 124.96875C776.15625 124.96875 1000 306.8124999999999 1000 531.21875S776.15625 937.46875 500 937.46875z" />
    <glyph glyph-name="deviantart"
      unicode="&#xE029;"
      horiz-adv-x="625" d="M625 817.96875L433.21875 468.1562499999999L447.6875 449.5937499999999H625.0312499999999V200.1875H310.78125L284.40625 182.21875L199.0625 18.15625C198.46875 18.15625 182.28125 1.34375 181.09375 0.1875H0.03125V182.21875L182.0625 532.625L167.59375 550.59375H0.03125V799.8125H304.71875L331.09375 817.78125L416.4375 981.84375C417.03125 981.84375 433.21875 998.625 434.40625 999.8125H625.0312499999999V817.96875z" />
    <glyph glyph-name="dir-down"
      unicode="&#xE02A;"
      horiz-adv-x="625" d="M279.3125 311.90625L13.6875 577.53125A46.65625000000001 46.65625000000001 0 0 0 13.6875 643.75L57.84375 687.875A46.65625000000001 46.65625000000001 0 0 0 124.0625 687.875L312.3437500000001 499.5937500000001L500.6250000000001 687.875A46.65625000000001 46.65625000000001 0 0 0 566.8437500000001 687.875L611.0000000000001 643.75A46.71875 46.71875 0 0 0 611.0000000000001 577.53125L345.3750000000001 311.90625A46.5 46.5 0 0 0 279.3437500000001 311.90625z" />
    <glyph glyph-name="dir-left"
      unicode="&#xE02B;"
      horiz-adv-x="500" d="M61.90625 533.1875L327.53125 798.8125A46.65625000000001 46.65625000000001 0 0 0 393.75 798.8125L437.875 754.6875A46.65625000000001 46.65625000000001 0 0 0 437.875 688.46875L249.78125 500L438.0625 311.71875A46.65625000000001 46.65625000000001 0 0 0 438.0625 245.5L393.9375000000001 201.15625A46.71875 46.71875 0 0 0 327.7187500000001 201.15625L62.0937500000001 466.78125A46.71875 46.71875 0 0 0 61.9062500000001 533.1875z" />
    <glyph glyph-name="dir-right"
      unicode="&#xE02C;"
      horiz-adv-x="500" d="M438.09375 466.78125L172.46875 201.15625A46.71875 46.71875 0 0 0 106.25 201.15625L62.09375 245.3125A46.71875 46.71875 0 0 0 62.09375 311.53125L250.375 499.8125L62.09375 688.09375A46.71875 46.71875 0 0 0 62.09375 754.3125L106.03125 798.84375A46.65625000000001 46.65625000000001 0 0 0 172.25 798.84375L437.875 533.21875C456.4375 514.84375 456.4375 485.15625 438.0625 466.8125z" />
    <glyph glyph-name="dir-up"
      unicode="&#xE02D;"
      horiz-adv-x="625" d="M345.71875 688.09375L611.3437500000001 422.46875A46.71875 46.71875 0 0 0 611.3437500000001 356.25L567.1875000000001 312.09375A46.71875 46.71875 0 0 0 500.9687500000001 312.09375L312.5 500.1875L124.21875 311.90625A46.71875 46.71875 0 0 0 58 311.90625L13.65625 356.0625A46.65625000000001 46.65625000000001 0 0 0 13.65625 422.2812499999999L279.28125 687.90625A46.71875 46.71875 0 0 0 345.6875 688.09375z" />
    <glyph glyph-name="dribbble"
      unicode="&#xE02E;"
      horiz-adv-x="1000" d="M500 984.375C232.90625 984.375 15.625 767.09375 15.625 500S232.90625 15.625 500 15.625S984.375 232.90625 984.375 500S767.09375 984.375 500 984.375zM820.2499999999999 761A411.71875 411.71875 0 0 0 913.6875 503.28125C900.0625 506.1562500000001 763.25 533.90625 625.59375 516.59375C614.34375 544.03125 603.7499999999999 568.15625 589.2187499999999 597.875C742.1874999999999 660.34375 811.5312499999999 749.21875 820.2499999999999 761zM774.2499999999999 808.84375C766.8124999999999 798.25 704.5312499999999 714.53125 557.4062499999999 659.40625A2201.21875 2201.21875 0 0 1 403.0312499999999 901.59375A412.65625 412.65625 0 0 0 774.2499999999999 808.84375zM324.09375 873.78125A2641.3125 2641.3125 0 0 0 477.5000000000001 634.5C283.9687500000001 583.09375 113.5000000000001 583.84375 95 584.09375C121.84375 712.46875 208.34375 819.1875 324.0937500000001 873.78125zM86.28125 499.375C86.28125 503.59375 86.375 507.8125 86.5 512.03125C104.59375 511.65625 305.09375 509.0625 511.71875 570.90625C523.5625 547.71875 534.875 524.1875 545.25 500.6875C395.6562500000001 458.5625 259.71875 337.5625 192.65625 222.75A412.03125000000006 412.03125000000006 0 0 0 86.28125 499.375zM246.0625000000001 172.96875C289.2812500000001 261.3125000000001 406.5625000000001 375.34375 573.375 432.25C631.46875 281.3125000000001 655.4687499999999 154.8125 661.6249999999999 118.5A412.87499999999994 412.87499999999994 0 0 0 246.0624999999999 172.96875zM731.15625 156.40625C726.90625 181.5625 704.90625 302.6875 650.78125 451.40625C780.4375 472.15625 894.34375 438.1875000000001 908.5 433.71875A414.53125 414.53125 0 0 0 731.15625 156.4062500000001z" />
    <glyph glyph-name="dropbox"
      unicode="&#xE02F;"
      horiz-adv-x="1031.25" d="M516.40625 772.84375L258.59375 608.1875L516.40625 443.5312499999999L258.59375 278.875L0 445.09375L258.40625 609.75L0 772.84375L258.40625 937.5L516.40625 772.84375zM257.03125 227.15625L514.8437499999999 391.8124999999999L772.6562499999999 227.15625L514.84375 62.5L257.0312500000001 227.15625zM516.40625 445.125L774.21875 609.78125L516.40625 773.0625L772.8437499999999 937.53125L1031.25 772.875L772.84375 608.21875L1031.25 443.78125L772.84375 279.1250000000001L516.4062500000001 445.15625z" />
    <glyph glyph-name="drupal"
      unicode="&#xE030;"
      horiz-adv-x="875" d="M624.03125 775.96875C580.6875 803.3125 539.0625 814.0625 497.65625 841.40625C472.25 858.59375 436.5312500000001 900 406.84375 935.75C401.5625 878.53125 384.375 855.28125 363.875 839.0625C322.28125 805.84375 295.90625 795.6875 259.375 775.96875C228.53125 759.75 62.5 645.5 62.5 432.59375C62.5 219.3125 241.78125 62.4687500000001 441.03125 62.4687500000001C639.65625 62.46875 812.5 207 812.5 425.75C812.5 645.09375 650.375 759.75 624.03125 775.9375zM628.90625 140.0312499999999C589.65625 100.7812499999999 452.9375 83.9687499999999 400.96875 131.8437499999999C391.59375 141.21875 401.5625 155.2812499999999 413.65625 155.2812499999999C413.65625 155.2812499999999 446.875 129.3124999999999 514.25 129.3124999999999C567 129.3124999999999 604.09375 144.34375 620.6875 156.6562499999999C632.59375 165.65625 637.0937499999999 148.25 628.875 140.0625zM522.46875 242.78125C539.46875 249.8125 579.125 250.2187499999999 594.3437500000001 240.25C602.3437500000001 234.7812499999999 625.7812500000001 203.5312499999999 606.4375000000001 193.9687499999999C590.0312500000001 185.7812499999999 604.0937500000001 224.625 554.6875000000001 224.625C525.9687500000001 224.625 516.5937500000001 214.46875 502.5312500000001 203.125C488.8437500000001 191.40625 483.3750000000001 187.5 478.7187500000001 193.9375C467.0000000000001 209.9375 509.7812500000001 237.4999999999999 522.46875 242.78125zM703.125 208.9687499999999C673.4375 210.9374999999999 614.25 304.28125 576.15625 305.65625C515.8125 307.40625 372.8437500000001 148.03125 261.1250000000001 223.625C185.3437500000001 275.59375 232.6250000000001 428.3125 362.3125000000001 429.0937499999999C459 430.0624999999999 526 333.375 574.21875 334.375C615.8125 334.9687499999999 694.9375 416.03125 734 416.03125C829.125 416.03125 779.5 202.5625 703.125 209z" />
    <glyph glyph-name="envelope"
      unicode="&#xE031;"
      horiz-adv-x="1000" d="M906.25 875H93.75C42 875 0 833 0 781.25V218.75C0 167 42 125 93.75 125H906.25C958 125 1000 167 1000 218.75V781.25C1000 833 958 875 906.25 875zM93.75 812.5H906.25C923.4375 812.5 937.5 798.4375 937.5 781.25V700.375C894.71875 664.25 833.59375 614.4375 643.34375 463.46875C610.34375 437.3125 545.3125 374.21875 499.9687499999999 375C454.65625 374.21875 389.4375 437.3125 356.59375 463.46875C166.34375 614.4375 105.2187499999999 664.25 62.4687499999999 700.375V781.25C62.4687499999999 798.4375 76.5312499999999 812.5 93.7187499999999 812.5zM906.25 187.5H93.75C76.5625 187.5 62.5 201.5625 62.5 218.75V619.15625C107.03125 582.625 177.34375 526.1875 317.78125 414.6562500000001C357.8125 382.625 428.53125 312.125 500 312.5C571.09375 311.90625 641.21875 381.84375 682.21875 414.65625C822.65625 526.1875 892.96875 582.625 937.5 619.15625V218.75C937.5 201.5625 923.4375 187.5 906.25 187.5z" />
    <glyph glyph-name="etsy"
      unicode="&#xE032;"
      horiz-adv-x="750" d="M750 320.3125C746.59375 299.3125 723.15625 105.46875 719.71875 62.5C489.4999999999999 70.90625 290.25 71.75 0 62.5V112.3125C88.78125 129.7812500000001 118.40625 127.9687500000001 119.15625 181.15625C122.65625 322.40625 126.03125 658 119.15625 810.0625C117.15625 865.65625 95.46875 862.34375 0 880.375V930.1875C144.3125 925.59375 499.875 913.5 708.96875 937.5C702.125 862.78125 693.8437500000001 690.4375 693.8437500000001 690.4375H648.4375C626.84375 774.09375 611.8125 867.1875 541.5 867.1875H273.90625C253.8750000000001 867.1875 252.90625 860.34375 252.90625 848.15625V528.34375C366.1875 527.375 425.75 533.21875 425.75 533.21875C483.90625 535.0625 479.59375 549.8125 505.34375 660.65625H555.625C547.0312500000001 462.7187500000001 548 539.90625 552.21875 347.65625H501.9374999999999C484.0624999999999 425.9375 484.2187499999999 466.875 424.78125 467.78125C424.78125 467.78125 382.78125 471.6875 252.90625 471.6875V200.1875C252.90625 149.40625 280.75 125.46875 339.34375 125.46875H513.6562499999999C637.9374999999999 125.46875 643.6562499999999 174.28125 706.53125 320.2812500000001H750z" />
    <glyph glyph-name="facebook-square"
      unicode="&#xE033;"
      horiz-adv-x="875" d="M781.25 937.5H93.75A93.75 93.75 0 0 1 0 843.75V156.25A93.75 93.75 0 0 1 93.75 62.5H361.8125V359.96875H238.75V500H361.8125V606.71875C361.8125 728.09375 434.09375 795.15625 544.75 795.15625C597.75 795.15625 653.1874999999999 785.6875 653.1874999999999 785.6875V666.53125H592.1249999999999C531.9375 666.53125 513.1874999999999 629.1875 513.1874999999999 590.875V499.9687499999999H647.5312499999999L626.0312499999999 359.9375H513.1874999999999V62.4687500000001H781.25A93.75 93.75 0 0 1 875 156.2187500000001V843.7187500000001A93.75 93.75 0 0 1 781.25 937.4687500000002z" />
    <glyph glyph-name="facebook"
      unicode="&#xE034;"
      horiz-adv-x="1000" d="M749.4419642857143 993.3035714285714V845.9821428571429H661.8303571428571Q613.8392857142858 845.9821428571429 597.0982142857143 825.8928571428571T580.3571428571429 765.625V660.15625H743.8616071428571L722.0982142857143 494.9776785714286H580.3571428571429V71.4285714285715H409.5982142857143V494.9776785714286H267.2991071428572V660.15625H409.5982142857143V781.8080357142857Q409.5982142857143 885.6026785714286 467.6339285714286 942.8013392857144T622.2098214285714 1000Q704.2410714285714 1000 749.4419642857143 993.3035714285714z" />
    </font>
</defs>
</svg>
